<?xml version="1.0" standalone="no"?>
<!DOCTYPE svg PUBLIC "-//W3C//DTD SVG 1.1//EN" "http://www.w3.org/Graphics/SVG/1.1/DTD/svg11.dtd" >
<svg>
<metadata>
Created by FontForge 20090914 at Fri Feb 24 12:23:56 2012
 By root
Copyright (c) 1990-1997 ParaGraph
</metadata>
<defs>
<font id="MagistralC" horiz-adv-x="681" >
  <font-face 
    font-family="MagistralC"
    font-weight="400"
    font-stretch="normal"
    units-per-em="1000"
    panose-1="2 0 5 3 3 0 0 2 0 4"
    ascent="800"
    descent="-200"
    x-height="530"
    cap-height="700"
    bbox="-420 -180 1139 879"
    underline-thickness="50"
    underline-position="-75"
    unicode-range="U+0020-U+2122"
  />
<missing-glyph horiz-adv-x="233" 
 />
    <glyph glyph-name=".notdef" horiz-adv-x="233" 
 />
    <glyph glyph-name=".null" horiz-adv-x="0" 
 />
    <glyph glyph-name="nonmarkingreturn" horiz-adv-x="233" 
 />
    <glyph glyph-name="space" unicode=" " horiz-adv-x="233" 
 />
    <glyph glyph-name="space" unicode="&#xa0;" horiz-adv-x="233" 
 />
    <glyph glyph-name="exclam" unicode="!" horiz-adv-x="194" 
d="M124 158v542h-54v-542h54zM70 0h54v77h-54v-77z" />
    <glyph glyph-name="quotedbl" unicode="&#x22;" horiz-adv-x="262" 
d="M50 513h54v187h-54v-187zM158 513h54v187h-54v-187z" />
    <glyph glyph-name="numbersign" unicode="#" horiz-adv-x="800" 
d="M92 0h52l78 195h226l-78 -195h52l78 195h140l19 47h-140l92 227h140l19 47h-140l74 184h-52l-74 -184h-226l74 184h-52l-74 -184h-140l-19 -47h140l-92 -227h-140l-19 -47h140zM467 242h-226l92 227h226z" />
    <glyph glyph-name="dollar" unicode="$" horiz-adv-x="650" 
d="M66 0h236v-68h44v68h82q32 0 63.5 4t60.5 28q33 28 40.5 63.5t7.5 67.5q0 29 -6 57t-33 54q-11 10 -23.5 18.5t-24.5 15t-21.5 10t-13.5 5.5l-132 50v280h220v47h-220v68h-44v-68h-99q-33 0 -63 -7.5t-57 -39.5q-23 -29 -28 -58.5t-5 -51.5q0 -26 4.5 -52.5t23.5 -49.5
q14 -17 33 -27.5t39 -18.5l152 -57v-291h-236v-47zM346 47v274l126 -48q14 -6 27 -14.5t23 -22t16 -33t6 -47.5q0 -18 -3.5 -38.5t-17.5 -37.5q-9 -11 -27.5 -22t-49.5 -11h-100zM302 390l-144 54q-18 7 -28 18.5t-15.5 25t-7 27.5t-1.5 26q0 6 0.5 16.5t2 22t5.5 22.5
t10 20q7 9 24 20t49 11h105v-263z" />
    <glyph glyph-name="percent" unicode="%" 
d="M182 706q-8 0 -20 -1t-24.5 -4t-25.5 -9t-24 -17q-13 -13 -20.5 -30t-11.5 -35t-5 -36.5t-1 -34.5t1 -34.5t5 -36.5t11.5 -35t20.5 -30q11 -11 24 -17t25.5 -9t24.5 -4t20 -1t20 1t24.5 4t25.5 9t24 17q13 13 20.5 30t11.5 35t5 36.5t1 34.5t-1 34.5t-5 36.5t-11.5 35
t-20.5 30q-11 11 -24 17t-25.5 9t-24.5 4t-20 1zM100 539q0 49 6.5 70t13.5 30q14 17 30.5 21.5t31.5 4.5t31.5 -4.5t30.5 -21.5q7 -9 13.5 -30t6.5 -70t-6.5 -70t-13.5 -30q-14 -17 -30.5 -21.5t-31.5 -4.5t-31.5 4.5t-30.5 21.5q-7 9 -13.5 30t-6.5 70zM160 0h47l318 700
h-47zM499 328q-8 0 -20 -1t-24.5 -4t-25.5 -9t-24 -17q-13 -13 -20.5 -30t-11.5 -35t-5 -36.5t-1 -34.5t1 -34.5t5 -36.5t11.5 -35t20.5 -30q11 -11 24 -17t25.5 -9t24.5 -4t20 -1t20 1t24.5 4t25.5 9t24 17q13 13 20.5 30t11.5 35t5 36.5t1 34.5t-1 34.5t-5 36.5t-11.5 35
t-20.5 30q-11 11 -24 17t-25.5 9t-24.5 4t-20 1zM417 161q0 26 3 53t19 47q14 18 29.5 22t30.5 4t30.5 -4t29.5 -22q16 -20 19 -47t3 -53t-3 -53t-19 -47q-14 -18 -29.5 -22t-30.5 -4t-30.5 4t-29.5 22q-16 20 -19 47t-3 53z" />
    <glyph glyph-name="ampersand" unicode="&#x26;" horiz-adv-x="632" 
d="M505 323h117v47h-384q-29 0 -58 9t-46 27q-11 12 -16.5 26.5t-8 30t-3 30t-0.5 26.5q0 10 0.5 24.5t3 30t8.5 30t18 25.5q17 16 40.5 20t43.5 4h290v47h-299q-45 0 -73.5 -12t-45.5 -29q-14 -15 -22.5 -33.5t-13 -38.5t-5.5 -38.5t-1 -33.5q0 -31 5.5 -64t23.5 -59
q17 -25 37 -32.5t33 -9.5v-2q-25 -5 -45.5 -17.5t-31.5 -29.5q-14 -20 -18 -49t-4 -61q0 -34 5.5 -72.5t32.5 -71.5q15 -18 31.5 -27.5t34 -14t34.5 -5t33 -0.5h208h14q9 0 18 1.5t17 5t14 10.5q5 5 9 17.5t4 41.5v247zM412 47h-192q-12 0 -25 0.5t-26 4.5t-25 12t-21 22
q-13 20 -15 45.5t-2 49.5q0 33 1.5 56.5t10.5 40.5q3 6 9.5 14t16.5 14.5t24.5 11.5t34.5 5h254v-243q0 -5 -1 -13.5t-6 -13.5t-17 -5.5t-21 -0.5z" />
    <glyph glyph-name="quotesingle" unicode="'" horiz-adv-x="154" 
d="M50 513h54v187h-54v-187z" />
    <glyph glyph-name="parenleft" unicode="(" horiz-adv-x="324" 
d="M120 428q0 32 4 71t24 73q7 12 19 26t30 26.5t42 22t55 11.5v46q-41 -3 -79 -17t-66 -37q-51 -42 -69 -112q-8 -35 -9 -70.5t-1 -65.5v-254q0 -39 1.5 -70t7.5 -59q8 -34 24 -63.5t46 -54.5q24 -20 60 -36.5t85 -18.5v46q-31 2 -55 11.5t-42 22t-30 26.5t-19 26
q-20 34 -24 73t-4 71v306z" />
    <glyph glyph-name="parenright" unicode=")" horiz-adv-x="324" 
d="M204 122q0 -32 -4 -71t-24 -73q-7 -12 -19 -26t-30 -26.5t-42 -22t-55 -11.5v-46q49 2 85 18.5t60 36.5q30 25 46 54.5t24 63.5q6 28 7.5 59t1.5 70v254q0 30 -1 65.5t-9 70.5q-18 70 -69 112q-28 23 -66 37t-79 17v-46q31 -2 55 -11.5t42 -22t30 -26.5t19 -26
q20 -34 24 -73t4 -71v-306z" />
    <glyph glyph-name="asterisk" unicode="*" horiz-adv-x="508" 
d="M233 252h42v188l162 -94l21 36l-162 94l162 94l-21 36l-162 -94v188h-42v-188l-162 94l-21 -36l162 -94l-162 -94l21 -36l162 94v-188z" />
    <glyph glyph-name="plus" unicode="+" horiz-adv-x="566" 
d="M310 100v186h186v48h-186v186h-54v-186h-186v-48h186v-186h54z" />
    <glyph glyph-name="comma" unicode="," horiz-adv-x="194" 
d="M48 -86l96 161l-48 29l-96 -161z" />
    <glyph glyph-name="hyphenminus" unicode="-" horiz-adv-x="400" 
d="M50 242h300v58h-300v-58z" />
    <glyph glyph-name="period" unicode="." horiz-adv-x="160" 
d="M110 0v87h-60v-87h60z" />
    <glyph glyph-name="slash" unicode="/" horiz-adv-x="468" 
d="M40 -163l438 903h-50l-438 -903h50z" />
    <glyph glyph-name="zero" unicode="0" horiz-adv-x="612" 
d="M50 234q0 -23 3 -50t12 -54t26 -52.5t45 -44.5q22 -15 43 -22.5t42 -10.5t42 -3h43h43t42 3t42 10.5t43 22.5q28 19 45 44.5t26 52.5t12 54t3 50v248q0 36 -7.5 63.5t-18 48.5t-22.5 35t-22 23q-21 19 -44 30t-46.5 16t-47.5 6.5t-48 1.5t-48 -1.5t-47.5 -6.5t-46.5 -16
t-44 -30q-10 -9 -22 -23t-22.5 -35t-18 -48.5t-7.5 -63.5v-248zM104 467q0 12 1.5 31.5t8 41t19.5 43.5t36 39q18 13 41 20.5t44 11t35.5 4t16.5 0.5t16.5 -0.5t35.5 -4t44 -11t41 -20.5q23 -17 36 -39t19.5 -43.5t8 -41t1.5 -31.5v-214q0 -40 -5.5 -81.5t-35.5 -75.5
q-16 -18 -35.5 -28.5t-40.5 -15.5t-43 -6t-43 -1t-42 1t-42 6t-40.5 15.5t-35.5 28.5q-30 34 -35.5 75.5t-5.5 81.5v214z" />
    <glyph glyph-name="one" unicode="1" horiz-adv-x="209" 
d="M85 0h54v633q0 13 -2.5 28t-15.5 26q-8 7 -21.5 10t-25.5 3h-84v-48h71q4 0 10 -1.5t10 -8.5q2 -5 3 -15t1 -15v-612z" />
    <glyph glyph-name="two" unicode="2" horiz-adv-x="585" 
d="M102 0h393v48h-380q-2 0 -5.5 1t-3.5 7q0 3 5 8t7 6l338 268l22 19t27 31q20 29 25 63t5 66q0 13 -1 31.5t-4.5 39t-11.5 40.5t-23 35q-13 13 -27.5 20.5t-30.5 11t-31.5 4.5t-30.5 1h-273v-48h278q37 0 55 -10.5t26 -21.5q10 -14 14 -38t4 -68q0 -28 -2.5 -48t-9 -35.5
t-16.5 -27.5t-25 -24l-349 -276q-17 -14 -22 -27.5t-5 -27.5q0 -6 1 -14t6 -15.5t15.5 -13t29.5 -5.5z" />
    <glyph glyph-name="three" unicode="3" horiz-adv-x="564" 
d="M50 0h317q28 0 56.5 6.5t51.5 32.5q13 15 20.5 33.5t11.5 38t5.5 39t1.5 36.5q0 12 -1 28.5t-4.5 34.5t-10.5 35.5t-19 31.5q-9 11 -24.5 20.5t-38.5 12.5v2q23 2 39 12t25 21q17 21 23.5 54t6.5 75q0 49 -7 82.5t-24 56.5q-13 18 -28.5 27.5t-31 14t-31 5.5t-28.5 1
h-294v-48h303q15 0 32 -5t31 -24q17 -23 19.5 -53.5t2.5 -56.5q0 -29 -3.5 -59t-21.5 -50q-12 -13 -34 -20.5t-51 -7.5h-276v-48h281q24 0 44 -7t32 -18q12 -12 19 -28.5t10 -34.5t3.5 -34.5t0.5 -27.5q0 -9 -0.5 -24.5t-3.5 -32t-10.5 -32t-20.5 -25.5q-16 -12 -39.5 -14
t-48.5 -2h-285v-48z" />
    <glyph glyph-name="four" unicode="4" horiz-adv-x="610" 
d="M453 0h54v139h73v48h-73v475q0 14 -2 21t-5 12q-10 13 -32 13q-25 0 -40 -12.5t-25 -23.5l-358 -423q-6 -7 -15.5 -21t-9.5 -32q0 -14 6 -26t16 -19q12 -9 28 -10.5t27 -1.5h356v-139zM453 187h-358q-6 0 -13.5 1.5t-7.5 11.5q0 6 15 24l350 417q3 3 5.5 6t4.5 3
q4 0 4 -3v-460z" />
    <glyph glyph-name="five" unicode="5" horiz-adv-x="571" 
d="M50 0h316q26 0 54.5 5.5t53.5 29.5q16 15 25 35.5t14 43t6.5 45.5t1.5 43q0 15 -0.5 33t-4 37t-11 37t-20.5 33q-25 29 -53.5 35t-54.5 6h-206q-20 0 -34.5 7.5t-21.5 17.5q-6 9 -8 22.5t-2 32.5v152q0 8 1.5 16.5t4.5 12.5q2 3 9 5.5t12 2.5h362v48h-371q-13 0 -27 -3
t-26 -16q-9 -9 -14 -23.5t-5 -29.5v-185q0 -6 1 -16t4.5 -22.5t11 -25t21.5 -22.5q21 -16 50 -19t50 -3h189q26 0 43 -10.5t25 -22.5q6 -9 12.5 -29t6.5 -64q0 -8 -0.5 -23.5t-2 -32.5t-6 -34.5t-11.5 -29.5q-6 -11 -24 -26t-53 -15h-318v-48z" />
    <glyph glyph-name="six" unicode="6" horiz-adv-x="570" 
d="M104 418v106q0 29 8.5 53.5t23.5 40.5q22 23 48.5 28.5t44.5 5.5h257v48h-268q-24 0 -51.5 -5t-54.5 -26q-10 -8 -21 -20t-20 -30t-15 -42t-6 -56v-330q0 -22 2.5 -45t9.5 -44t20 -40t34 -33q28 -19 58.5 -24t55.5 -5h102q22 0 44.5 2.5t43 10.5t38.5 22t32 37
q21 34 25.5 72t4.5 69q0 18 -1.5 39.5t-6.5 43.5t-16.5 43t-30.5 39q-32 28 -64.5 34t-63.5 6h-233zM104 370h220q23 0 52.5 -5.5t54.5 -31.5q12 -13 18.5 -28.5t10 -31t4 -30.5t0.5 -27q0 -14 -1 -31t-4.5 -34.5t-9.5 -34t-15 -28.5q-11 -14 -25 -22t-27.5 -12t-26.5 -5
t-23 -1h-104q-39 0 -62 11t-34 23q-10 11 -15.5 25.5t-8.5 28t-3.5 25t-0.5 17.5v192z" />
    <glyph glyph-name="seven" unicode="7" horiz-adv-x="465" 
d="M34 0h61l370 584q4 6 12 23t8 40q0 18 -6 29t-15.5 16t-21 6.5t-22.5 1.5h-440v-48h430q6 0 11.5 -2.5t5.5 -13.5q0 -2 -1.5 -9.5t-10.5 -21.5z" />
    <glyph glyph-name="eight" unicode="8" horiz-adv-x="590" 
d="M242 700q-12 0 -29 -0.5t-35 -4t-35.5 -11t-31.5 -20.5q-15 -15 -24 -36t-13.5 -43t-5.5 -42.5t-1 -34.5q0 -12 0.5 -27t3.5 -31t9.5 -32.5t18.5 -29.5q8 -9 21.5 -18.5t33.5 -14.5v-2q-16 -2 -33 -9t-30 -19q-14 -13 -22 -31.5t-12.5 -38.5t-5.5 -39.5t-1 -35.5
q0 -32 4 -63.5t27 -60.5q29 -36 65.5 -46t71.5 -10h154q35 0 71.5 10t65.5 46q23 29 27 60.5t4 63.5q0 16 -1 35.5t-5.5 39.5t-12.5 38.5t-22 31.5q-13 12 -30 19t-33 9v2q20 5 33.5 14.5t21.5 18.5q12 13 18.5 29.5t9.5 32.5t3.5 31t0.5 27q0 14 -1 34.5t-5.5 42.5
t-13.5 43t-24 36q-14 13 -31.5 20.5t-35.5 11t-35 4t-29 0.5h-106zM234 378q-10 0 -23 1t-25.5 5t-24.5 11.5t-21 20.5q-8 11 -12.5 31.5t-4.5 62.5q0 10 1 26.5t4.5 34t10.5 33.5t19 27q19 16 42.5 18.5t44.5 2.5h100q21 0 44.5 -2.5t42.5 -18.5q12 -11 19 -27t10.5 -33.5
t4.5 -34t1 -26.5q0 -42 -4.5 -62.5t-12.5 -31.5q-9 -13 -21 -20.5t-24.5 -11.5t-25.5 -5t-23 -1h-122zM218 48q-41 0 -61 13t-27 22q-8 10 -12.5 24.5t-7 29.5t-3.5 29.5t-1 23.5q0 8 0.5 23.5t4.5 32.5t12 34t22 28t35.5 16.5t41.5 5.5h146q20 0 41.5 -5.5t35.5 -16.5
t22 -28t11.5 -34t4.5 -32.5t1 -23.5q0 -9 -1 -23.5t-3.5 -29.5t-7 -29.5t-12.5 -24.5q-7 -9 -27 -22t-61 -13h-154z" />
    <glyph glyph-name="nine" unicode="9" horiz-adv-x="570" 
d="M91 0h250q17 0 38 2.5t42 10.5t41 24.5t34 44.5q16 32 20 70t4 76v286q0 8 -1 22.5t-4 31.5t-9 35t-16 33q-15 22 -36 35t-44 19.5t-45.5 8t-40.5 1.5h-77q-35 0 -72.5 -6t-68.5 -32q-20 -17 -31 -39.5t-16.5 -45.5t-7 -45t-1.5 -39q0 -19 1 -39.5t5.5 -40.5t13 -39
t22.5 -35t41.5 -32.5t74.5 -16.5h258v-81q0 -12 -1 -28.5t-4.5 -34.5t-10 -35t-18.5 -29q-23 -23 -54 -28.5t-56 -5.5h-231v-48zM466 338h-217q-26 0 -55.5 3.5t-52.5 26.5q-20 20 -27.5 55.5t-7.5 70.5q0 30 6.5 64t29.5 59q11 12 24 19t25.5 10.5t23.5 4.5t20 1h99
q22 0 50 -5.5t50 -28.5t27 -53t5 -52v-175z" />
    <glyph glyph-name="colon" unicode=":" horiz-adv-x="180" 
d="M120 449v81h-60v-81h60zM120 0v81h-60v-81h60z" />
    <glyph glyph-name="semicolon" unicode=";" horiz-adv-x="204" 
d="M48 -86l96 161l-48 29l-96 -161zM144 449v81h-60v-81h60z" />
    <glyph glyph-name="less" unicode="&#x3c;" horiz-adv-x="567" 
d="M70 331l427 -215v54l-331 161l331 161v54z" />
    <glyph glyph-name="equal" unicode="=" horiz-adv-x="566" 
d="M496 232v48h-426v-48h426zM496 340v48h-426v-48h426z" />
    <glyph glyph-name="greater" unicode="&#x3e;" horiz-adv-x="567" 
d="M497 331l-427 215v-54l331 -161l-331 -161v-54z" />
    <glyph glyph-name="question" unicode="?" horiz-adv-x="437" 
d="M161 158v86q0 10 3 19t8 17q7 10 17 17.5t17 11.5l98 58q19 11 36 24t29.5 31.5t20 44.5t7.5 64q0 30 -6.5 65t-34.5 64q-26 27 -55.5 33.5t-59.5 6.5h-231v-48h224q18 0 42 -4.5t41 -25.5q9 -10 13.5 -23t7 -26.5t3 -26t0.5 -22.5q0 -36 -11.5 -63.5t-53.5 -52.5
l-92 -54q-29 -17 -42 -30t-16 -18q-13 -18 -16 -36.5t-3 -35.5v-76h54zM107 0h54v77h-54v-77z" />
    <glyph glyph-name="at" unicode="@" horiz-adv-x="973" 
d="M675 -148v47h-290q-22 0 -57.5 4t-72 20.5t-69.5 50t-50 92.5q-6 21 -10 48.5t-6 57t-3 59.5t-1 56q0 49 2 84.5t5 61.5t7 43.5t8 29.5q18 51 49.5 80.5t68.5 44.5t76 18.5t71 3.5h191q31 0 63.5 -3.5t63.5 -15.5t58 -34.5t46 -61.5q20 -40 26 -91t6 -115q0 -40 -0.5 -69
t-2 -50.5t-4.5 -37t-7 -27.5q-15 -43 -40 -57t-50 -14q-32 0 -48.5 15t-24 36t-8.5 43t-1 36v236q0 16 -0.5 31.5t-17.5 32.5q-15 15 -31.5 18t-35.5 3h-130q-20 0 -42.5 -4t-45 -14.5t-42.5 -28.5t-35 -47q-18 -37 -22.5 -78t-4.5 -81q0 -17 0.5 -37t3.5 -41.5t9 -43
t17 -41.5q25 -45 65.5 -63.5t94.5 -18.5q25 0 50.5 4t49 14t44 27.5t35.5 43.5q7 -32 23.5 -50t35 -26.5t34.5 -10.5t23 -2q45 0 78 16.5t56 62.5q20 41 25 94.5t5 119.5q0 67 -7 131t-40 121q-27 46 -63.5 71.5t-74.5 37.5t-75 14t-64 2h-181q-37 0 -75 -3t-74.5 -13.5
t-70.5 -31.5t-62 -56q-23 -29 -36.5 -61.5t-20 -70t-8 -82t-1.5 -96.5q0 -103 12 -185t54 -141q15 -21 37 -40.5t52 -34.5t69 -24t88 -9h303zM619 448v-177q0 -7 -0.5 -23t-4 -35.5t-10 -41t-18.5 -38.5q-13 -19 -29 -30t-32.5 -17t-34 -7.5t-33.5 -1.5q-19 0 -37.5 2
t-35 10t-30 23.5t-22.5 42.5q-3 10 -7.5 37t-4.5 85q0 16 1 35.5t4 39t7.5 37.5t11.5 32q11 21 26.5 33.5t33.5 18.5t36.5 7.5t35.5 1.5h103q8 0 17 -1.5t15 -8.5q8 -10 8 -24z" />
    <glyph glyph-name="A" unicode="A" horiz-adv-x="672" 
d="M-10 0h58l85 204h406l85 -204h58l-268 634q-12 28 -29.5 51t-48.5 23q-16 0 -28 -6t-21 -16.5t-16 -24t-13 -27.5zM307 618l11.5 25.5t17.5 14.5t17.5 -14.5l11.5 -25.5l153 -366h-364z" />
    <glyph glyph-name="B" unicode="B" 
d="M70 90q0 -16 3.5 -34t17.5 -33q20 -20 45 -21.5t44 -1.5h309q27 0 51 6.5t49 34.5q16 18 24.5 36t12.5 36.5t4.5 37.5t0.5 38q0 33 -3 65.5t-26 59.5q-10 12 -28 23.5t-44 14.5v4q19 2 34.5 11t29.5 26q20 26 25 56t5 62q0 17 -1.5 37t-6 40t-13 39t-23.5 34
q-15 16 -41 27.5t-64 11.5h-323q-16 0 -32 -4t-30 -20q-10 -12 -15 -30t-5 -38v-518zM124 612q0 6 2.5 16.5t7.5 15.5q6 7 14 7.5t16 0.5h303q14 0 32 -2.5t35 -18.5q4 -4 9.5 -11.5t10.5 -20.5t8.5 -33t3.5 -48q0 -11 -1 -26t-3 -31t-6.5 -30.5t-11.5 -23.5
q-17 -22 -43 -26.5t-49 -4.5h-328v236zM124 328h359q22 0 42 -11t30 -26q5 -8 8.5 -21t5.5 -27.5t3 -29t1 -25.5q0 -12 -1 -26.5t-3.5 -29.5t-6.5 -28.5t-11 -22.5q-9 -13 -21.5 -19.5t-25 -9.5t-25.5 -3.5t-23 -0.5h-279q-12 0 -25.5 1.5t-20.5 9.5q-3 4 -5 12.5t-2 30.5
v226z" />
    <glyph glyph-name="C" unicode="C" horiz-adv-x="639" 
d="M619 0v48h-271q-12 0 -36 1.5t-51.5 10t-56 25.5t-50.5 48q-17 24 -26.5 51.5t-14 55t-5 53t-0.5 46.5q0 29 1.5 60.5t6.5 61.5t15.5 58.5t28.5 51.5q22 28 49 44t54.5 24.5t53.5 10.5t46 2h245v48h-268q-42 0 -75.5 -8t-60 -20t-46.5 -27t-33 -30q-26 -27 -40.5 -60
t-22.5 -69t-10 -73t-2 -73q0 -89 16.5 -152.5t61.5 -108.5q12 -12 30 -25.5t43.5 -25.5t59 -20t76.5 -8h282z" />
    <glyph glyph-name="D" unicode="D" horiz-adv-x="728" 
d="M416 0q72 0 118.5 24.5t73.5 59.5q24 30 38 66t21 72.5t9 72.5t2 67q0 30 -1.5 63t-9.5 66.5t-24 66t-44 61.5q-28 28 -58 44.5t-57 24.5t-49.5 10t-36.5 2h-238q-14 0 -32 -4.5t-34 -21.5q-17 -18 -20.5 -37.5t-3.5 -36.5v-523q0 -16 4 -31.5t21 -28.5q15 -12 35 -14.5
t38 -2.5h248zM124 614q0 11 4 18.5t9 12.5q7 5 14.5 6t13.5 1h236q50 0 93 -19t72 -56q18 -23 29 -48t16.5 -52t7 -55t1.5 -56q0 -75 -8.5 -130t-29.5 -95q-17 -31 -38.5 -49.5t-44.5 -28t-45 -12.5t-40 -3h-251q-5 0 -15.5 1t-16.5 7q-7 7 -7 36v522z" />
    <glyph glyph-name="E" unicode="E" horiz-adv-x="620" 
d="M580 0v48h-401q-9 0 -24.5 2t-20.5 7t-7.5 13.5t-2.5 14.5v249h442v48h-442v225q0 5 1.5 16.5t9.5 18.5q5 5 16.5 7.5t19.5 2.5h405v48h-413q-20 0 -39 -4t-34 -22q-4 -5 -12 -20.5t-8 -46.5v-510q0 -20 3 -40t19 -36q17 -17 36 -19t37 -2h415z" />
    <glyph glyph-name="F" unicode="F" horiz-adv-x="574" 
d="M124 0v332h314v48h-314v244q0 5 1 11t5 11t8.5 5.5t9.5 0.5h406v48h-402q-17 0 -33 -3t-30 -18q-8 -8 -13.5 -20t-5.5 -30v-629h54z" />
    <glyph glyph-name="G" unicode="G" horiz-adv-x="704" 
d="M654 321h-54v-229q0 -8 -2 -17.5t-7 -15.5q-7 -8 -16 -9.5t-17 -1.5h-258q-31 0 -56.5 8.5t-45.5 22.5t-35 32t-24 38q-3 6 -8 19.5t-10 37.5t-9 59.5t-4 84.5q0 19 1 44.5t4.5 52.5t9.5 53t17 47q23 46 70 75.5t113 29.5h315v48h-300q-32 0 -76 -6.5t-87 -32.5
q-42 -25 -67 -61t-38 -77.5t-16.5 -87t-3.5 -89.5q0 -37 2.5 -77.5t12.5 -80t29.5 -75t53.5 -62.5q29 -23 68 -37t85 -14h271q14 0 33 4t30 15q14 13 16.5 31.5t2.5 27.5v243z" />
    <glyph glyph-name="H" unicode="H" horiz-adv-x="702" 
d="M632 700h-54v-320h-454v320h-54v-700h54v332h454v-332h54v700z" />
    <glyph glyph-name="I" unicode="I" horiz-adv-x="194" 
d="M124 0v700h-54v-700h54z" />
    <glyph glyph-name="J" unicode="J" horiz-adv-x="392" 
d="M-20 0h139q55 0 92 21.5t57 42.5q26 28 40 68t14 103v465h-54v-466q0 -38 -8.5 -77.5t-37.5 -67.5q-15 -14 -42.5 -27.5t-71.5 -13.5h-128v-48z" />
    <glyph glyph-name="K" unicode="K" horiz-adv-x="626" 
d="M70 0h54v700h-54v-700zM656 0l-387 298q-17 13 -34.5 28.5t-17.5 32.5q0 8 5 15.5t12 14t14.5 12t12.5 9.5l358 290h-78l-328 -264q-17 -14 -33.5 -34.5t-16.5 -41.5t17 -44.5t44 -44.5l351 -271h81z" />
    <glyph glyph-name="L" unicode="L" horiz-adv-x="543" 
d="M563 0v48h-401q-7 0 -15.5 1.5t-14.5 6.5q-6 6 -7 13t-1 13v618h-54v-636q0 -11 3 -24.5t16 -24.5t31 -13t26 -2h417z" />
    <glyph glyph-name="M" unicode="M" horiz-adv-x="932" 
d="M70 0h54v642q0 11 5 14.5t9 3.5q5 0 11 -7t8 -13l238 -572q14 -32 29 -54t42 -22t42 22t29 54l238 572q2 6 8 13t11 7q4 0 9 -3.5t5 -14.5v-642h54v642q0 29 -18 47.5t-48 18.5t-46 -18.5t-30 -50.5l-237 -570q-2 -6 -5.5 -14t-11.5 -8t-11.5 8t-5.5 14l-237 570
q-14 32 -30 50.5t-46 18.5t-48 -18.5t-18 -47.5v-642z" />
    <glyph glyph-name="N" unicode="N" horiz-adv-x="732" 
d="M662 700h-54v-633q0 -5 -1.5 -11.5t-11.5 -6.5q-9 0 -13.5 6t-8.5 12l-368 594q-11 18 -25.5 32.5t-43.5 14.5q-5 0 -15.5 -1.5t-22 -8t-20 -21t-8.5 -40.5v-637h54v631q0 13 6.5 16.5t8.5 3.5q8 0 14 -6t9 -11l366 -591q17 -27 31.5 -39t38.5 -12q32 0 48 21.5t16 56.5
v630z" />
    <glyph glyph-name="O" unicode="O" horiz-adv-x="778" 
d="M389 708q-29 0 -62.5 -2t-67.5 -9.5t-66.5 -22.5t-59.5 -42q-30 -30 -46.5 -66t-24.5 -74t-10 -75t-2 -67t2 -67t10 -75t24.5 -74t46.5 -66q27 -27 59.5 -42.5t66.5 -23t67.5 -9t62.5 -1.5t62.5 1.5t67.5 9t66.5 23t59.5 42.5q30 30 46.5 66t24.5 74t10 75t2 67t-2 67
t-10 75t-24.5 74t-46.5 66q-27 27 -59.5 42t-66.5 22.5t-67.5 9.5t-62.5 2zM108 350q0 30 1 63t7 64.5t18 61.5t34 54q22 25 50 38.5t57.5 20t59 7.5t54.5 1t54.5 -1t59 -7.5t57 -20t50.5 -38.5q22 -24 34 -54t18 -61.5t7 -64.5t1 -63t-1 -63t-7 -64.5t-18 -61.5t-34 -54
q-23 -25 -50.5 -38.5t-57 -20t-59 -7.5t-54.5 -1t-54.5 1t-59 7.5t-57.5 20t-50 38.5q-22 24 -34 54t-18 61.5t-7 64.5t-1 63z" />
    <glyph glyph-name="P" unicode="P" 
d="M124 0v286h355q26 0 51 8t43 22q19 15 30.5 35t17.5 42.5t8 46.5t2 45q0 69 -11.5 110.5t-41.5 67.5t-64.5 31.5t-68.5 5.5h-289q-4 0 -12 -0.5t-18 -2.5t-20 -5.5t-17 -10.5q-14 -14 -16.5 -32t-2.5 -32v-617h54zM124 334v275q0 18 5 30.5t35 12.5h286q38 0 60.5 -10
t33.5 -22q10 -12 16 -28.5t9 -34t3.5 -33.5t0.5 -25q0 -10 -0.5 -27.5t-3 -37t-8 -38t-15.5 -30.5q-9 -11 -31.5 -21.5t-66.5 -10.5h-324z" />
    <glyph glyph-name="Q" unicode="Q" horiz-adv-x="781" 
d="M735 48h-118v3q25 14 41 31.5t26 33.5q15 25 24 58t13.5 65.5t5.5 62t1 48.5q0 61 -6.5 106.5t-17.5 79t-25.5 56.5t-31.5 40q-27 27 -59.5 42t-66.5 22.5t-68 9.5t-64 2q-29 0 -62.5 -2t-67.5 -9.5t-66.5 -22.5t-59.5 -42q-30 -30 -46.5 -66t-24.5 -74t-10 -75t-2 -67
q0 -29 2 -65.5t10 -75.5t24.5 -76t46.5 -65q26 -25 59.5 -38.5t68.5 -20t68.5 -8t60.5 -1.5h345v48zM108 350q0 31 1 63.5t7 64t18 61t34 54.5q21 24 46.5 37t54 20t59 8.5t61.5 1.5t61.5 -1.5t59 -8.5t54 -20t46.5 -37q22 -25 34 -54.5t18 -61t7 -64t1 -63.5q0 -28 -1 -61
t-7 -66t-18 -63t-34 -53q-20 -21 -46.5 -32.5t-55.5 -17.5t-60 -7.5t-59 -1.5q-29 0 -59.5 1.5t-60 7.5t-55.5 17.5t-46 32.5q-22 22 -34 53t-18 64t-7 66t-1 60z" />
    <glyph glyph-name="R" unicode="R" horiz-adv-x="701" 
d="M70 0h54v605q0 9 2.5 18.5t11.5 17.5t18.5 9.5t17.5 1.5h286q6 0 16 -0.5t21.5 -3t23.5 -7.5t22 -14q13 -12 19.5 -30t9.5 -37t3.5 -36.5t0.5 -29.5q0 -55 -5.5 -82.5t-13.5 -41.5t-27 -26.5t-45 -12.5h-217q-11 0 -17.5 -6t-6.5 -17v-16q0 -9 3.5 -13t15.5 -15l309 -264
h79l-328 278v5h155q16 0 33 2.5t33.5 9.5t31.5 19t27 30q22 35 26.5 74.5t4.5 71.5q0 39 -5.5 79t-25.5 71q-13 19 -29.5 31t-34.5 18.5t-36 8.5t-33 2h-295q-20 0 -39 -4t-37 -20q-21 -19 -25 -39.5t-4 -43.5v-593z" />
    <glyph glyph-name="S" unicode="S" horiz-adv-x="646" 
d="M61 0h389q13 0 28 1.5t29.5 6t28.5 13.5t26 25q13 17 20 37.5t10 39t3.5 32t0.5 15.5q0 26 -8.5 57t-34.5 56q-18 17 -44 29t-58 23l-272 96q-25 9 -39.5 21.5t-21.5 26.5t-8.5 30t-1.5 33q0 18 2.5 42t18.5 41q13 14 33.5 20.5t39.5 6.5h361v48h-355q-42 0 -69 -11
t-42 -24q-32 -27 -39.5 -60.5t-7.5 -60.5q0 -29 6.5 -58.5t28.5 -54.5q14 -17 37 -30t49 -22l279 -96q29 -10 46.5 -23t26.5 -27.5t12 -31t3 -33.5q0 -37 -7 -60t-18.5 -36.5t-26 -18.5t-30.5 -5h-395v-48z" />
    <glyph glyph-name="T" unicode="T" horiz-adv-x="600" 
d="M327 0v652h293v48h-640v-48h293v-652h54z" />
    <glyph glyph-name="U" unicode="U" horiz-adv-x="676" 
d="M70 700v-482q0 -18 2 -38t7.5 -40t15 -39.5t25.5 -37.5q22 -25 51 -39t59 -21t58.5 -9t49.5 -2t49 2t58 9t59 21t52 39q31 35 40.5 76.5t9.5 78.5v482h-54v-463q0 -16 -0.5 -34.5t-4 -37.5t-11 -37t-20.5 -33q-16 -19 -37 -30t-44.5 -16.5t-48.5 -7t-48 -1.5t-48 1.5
t-48.5 7t-44.5 16.5t-37 30q-13 15 -20.5 33t-11 37t-4 37.5t-0.5 34.5v463h-54z" />
    <glyph glyph-name="V" unicode="V" horiz-adv-x="608" 
d="M41 700h-61l263 -662q6 -17 15 -26t18 -13.5t17 -5.5t11 -1q26 0 41 16t20 30l263 662h-61l-246 -639q-4 -10 -8.5 -12.5t-8.5 -2.5t-8.5 2.5t-8.5 12.5z" />
    <glyph glyph-name="W" unicode="W" horiz-adv-x="900" 
d="M35 700h-55l166 -649q10 -37 28 -48t38 -11q18 0 30 6t20 15t12.5 20.5t7.5 22.5l152 575q1 4 4.5 12t11.5 8t11.5 -8t4.5 -12l152 -575q3 -11 7.5 -22.5t12.5 -20.5t20 -15t30 -6q20 0 38 11t28 48l166 649h-55l-158 -634q-1 -5 -4.5 -13.5t-12.5 -8.5q-5 0 -11 5t-8 13
l-150 578q-3 10 -7.5 21.5t-12.5 22t-20.5 17.5t-30.5 7t-30.5 -7t-20.5 -17.5t-12.5 -22t-7.5 -21.5l-150 -578q-2 -8 -8 -13t-11 -5q-9 0 -12.5 8.5t-4.5 13.5z" />
    <glyph glyph-name="X" unicode="X" horiz-adv-x="560" 
d="M580 0l-271 355l263 345h-64l-228 -306l-228 306h-64l263 -345l-271 -355h64l236 316l236 -316h64z" />
    <glyph glyph-name="Y" unicode="Y" horiz-adv-x="594" 
d="M297 279l-257 421h-60l290 -470v-230h54v230l290 470h-60z" />
    <glyph glyph-name="Z" unicode="Z" horiz-adv-x="578" 
d="M554 0v48h-475q-11 0 -11 12q0 10 9 21l467 510q8 9 16 22.5t8 32.5q0 26 -18.5 40t-44.5 14h-471v-48h458q5 0 11.5 -2.5t6.5 -12.5q0 -5 -3.5 -13.5t-7.5 -12.5l-465 -502q-10 -11 -17 -25t-7 -28q0 -7 2.5 -16.5t10 -18.5t22 -15t37.5 -6h472z" />
    <glyph glyph-name="bracketleft" unicode="[" horiz-adv-x="324" 
d="M120 658h174v46h-224v-858h224v46h-174v766z" />
    <glyph glyph-name="backslash" unicode="\" horiz-adv-x="468" 
d="M428 -163h50l-438 903h-50z" />
    <glyph glyph-name="bracketright" unicode="]" horiz-adv-x="324" 
d="M204 658v-766h-174v-46h224v858h-224v-46h174z" />
    <glyph glyph-name="asciicircum" unicode="^" horiz-adv-x="452" 
d="M394 514l28 35l-157 134q-7 6 -16.5 11.5t-22.5 5.5t-22.5 -5.5t-16.5 -11.5l-157 -134l28 -35l147 129q4 3 9 6t12 3t12 -3t9 -6z" />
    <glyph glyph-name="underscore" unicode="_" horiz-adv-x="592" 
d="M50 0h492v58h-492v-58z" />
    <glyph glyph-name="grave" unicode="`" horiz-adv-x="214" 
d="M61 699l-31 -39l123 -100l31 39z" />
    <glyph glyph-name="a" unicode="a" horiz-adv-x="505" 
d="M70 530v-47h257q19 0 33.5 -7t22.5 -17q10 -12 15 -31t5 -32v-79h-230q-23 0 -50 -5t-49 -23q-29 -24 -36.5 -58.5t-7.5 -66.5q0 -12 1 -30.5t6 -38t14 -39t26 -32.5q22 -17 47.5 -20.5t48.5 -3.5h204q14 0 31 2t29 13q13 12 15.5 28t2.5 27v317q0 24 -5.5 53.5
t-26.5 52.5q-16 17 -41 27t-52 10h-260zM403 270v-199q0 -5 -1 -9t-6 -9t-11.5 -5.5t-11.5 -0.5h-214q-17 0 -30.5 6.5t-21.5 16.5q-14 17 -17.5 42.5t-3.5 49.5q0 28 3.5 48.5t13.5 33.5q6 8 20.5 17t37.5 9h242z" />
    <glyph glyph-name="b" unicode="b" horiz-adv-x="516" 
d="M50 700v-617q0 -14 4 -33.5t21 -33.5q14 -11 36.5 -13.5t45.5 -2.5h114q22 0 46 3t48 12t46.5 26t39.5 46q12 21 19 43.5t10.5 45t4.5 43.5t1 39q0 21 -1 44.5t-4.5 47.5t-10.5 48t-20 45q-17 29 -39.5 46t-47 26t-49.5 12t-46 3h-166v170h-52zM102 483h162q18 0 39 -2.5
t40.5 -10t37 -23t28.5 -40.5q6 -14 10 -34t6.5 -42.5t3.5 -45.5t1 -42q0 -38 -4 -69.5t-18 -56.5t-33 -39t-39.5 -21t-40.5 -8.5t-35 -1.5h-121q-7 0 -16.5 1.5t-14.5 7.5t-5.5 15t-0.5 17v395z" />
    <glyph glyph-name="c" unicode="c" horiz-adv-x="476" 
d="M446 0v47h-186q-18 0 -40.5 2.5t-44 10.5t-40.5 24t-31 42q-5 11 -8.5 27t-5.5 33.5t-3 34.5t-1 30q0 10 0.5 26.5t2 34.5l3 35t4.5 28q12 48 50.5 78t102.5 30h185v47h-179q-63 0 -102.5 -18t-62.5 -41q-21 -21 -33 -47t-18 -54t-7.5 -56.5t-1.5 -55.5q0 -59 8 -106
t40 -85q23 -28 61 -47.5t95 -19.5h212z" />
    <glyph glyph-name="d" unicode="d" horiz-adv-x="513" 
d="M463 77v623h-52v-170h-161q-22 0 -46 -2.5t-48 -11t-46 -24t-40 -41.5q-28 -41 -34 -84.5t-6 -87.5t4 -89t20 -83q15 -36 36 -57t45 -32t47.5 -14.5t43.5 -3.5h165q13 0 30 2.5t28 16.5q8 10 11 26.5t3 31.5zM411 483v-391q0 -8 -1.5 -20t-6.5 -17q-6 -6 -16.5 -7
t-15.5 -1h-133q-16 0 -35.5 2.5t-38.5 11t-36 25t-27 43.5q-2 5 -4.5 14.5t-5 26t-4 41t-1.5 60.5q0 57 6 93t20 59q12 19 27.5 31t32.5 18.5t34 8.5t32 2h173z" />
    <glyph glyph-name="e" unicode="e" horiz-adv-x="517" 
d="M473 0v47h-260q-26 0 -46 8.5t-34.5 21.5t-24 29.5t-13.5 32.5q-6 21 -8 53t-1 55h323q11 0 27.5 2.5t28.5 13.5q8 7 12.5 16.5t6.5 19t2.5 18.5t0.5 15q0 42 -10.5 71.5t-24.5 49.5t-28 31t-22 16q-32 19 -69.5 24.5t-65.5 5.5q-40 0 -85 -8.5t-81 -38.5
q-25 -21 -39.5 -47.5t-21.5 -55.5t-8.5 -59t-1.5 -58q0 -59 6 -108.5t37 -89.5q15 -20 33 -33t36.5 -20t36.5 -9.5t34 -2.5h260zM86 294q1 39 5 69t20 56q14 23 31 36t36.5 19t39.5 7.5t40 1.5q18 0 36 -1t36 -5.5t34.5 -13.5t30.5 -26q14 -16 25 -42.5t11 -65.5v-9
q0 -5 -2 -11t-6.5 -10.5t-13.5 -4.5h-323z" />
    <glyph glyph-name="f" unicode="f" horiz-adv-x="265" 
d="M10 530v-47h69v-483h52v483h143v47h-143q0 12 1.5 26.5t5.5 28.5t10.5 26t16.5 21q20 17 52.5 22t57.5 5v47q-18 0 -38.5 -1.5t-41.5 -7t-40 -14.5t-34 -24q-14 -14 -22 -30.5t-12.5 -34t-6 -34.5t-1.5 -30h-69z" />
    <glyph glyph-name="g" unicode="g" horiz-adv-x="541" 
d="M439 0q-2 -23 -11.5 -48t-28.5 -42q-14 -12 -31 -18.5t-34.5 -10t-32 -4t-21.5 -0.5h-212v-47h212q12 0 33.5 1.5t45.5 7.5t47.5 18t41.5 32q27 32 35 77.5t8 94.5v376q0 17 -5.5 38t-25.5 36q-17 13 -38.5 16t-42.5 3h-132q-50 0 -87.5 -10t-70.5 -44
q-38 -38 -48.5 -86.5t-10.5 -111.5q0 -62 8 -115.5t34 -93.5q16 -24 35 -38t40 -21t43 -8.5t44 -1.5h205zM439 47h-208h-25q-13 0 -27 3t-27.5 10t-25.5 21q-3 4 -9.5 14t-13.5 31.5t-12 55.5t-5 86q0 21 1 45.5t5.5 48.5t13.5 46t24 38q13 14 36.5 25.5t61.5 11.5h164
q8 0 16 -1.5t16 -6.5q10 -7 12.5 -15.5t2.5 -19.5v-393z" />
    <glyph glyph-name="h" unicode="h" horiz-adv-x="515" 
d="M50 0h52v483h199q22 0 44.5 -5t41.5 -27q18 -21 22 -48.5t4 -44.5v-358h52v352q0 40 -8.5 76.5t-37.5 63.5q-23 21 -53 29.5t-70 8.5h-194v170h-52v-700z" />
    <glyph glyph-name="i" unicode="i" horiz-adv-x="156" 
d="M52 0h52v530h-52v-530zM106 626v74h-56v-74h56z" />
    <glyph glyph-name="j" unicode="j" horiz-adv-x="258" 
d="M-10 -178q14 -2 33 -2q20 0 41 3t42.5 10.5t39.5 21.5q20 16 32 34t18 36.5t8 35.5t2 30v539h-52v-529q0 -44 -10.5 -66t-30.5 -38q-10 -8 -21 -13.5t-25 -9.5t-33 -5t-44 0v-47zM208 626v74h-56v-74h56z" />
    <glyph glyph-name="k" unicode="k" horiz-adv-x="459" 
d="M102 0v700h-52v-700h52zM469 0l-244 226q-11 10 -19.5 23t-8.5 27q0 7 3.5 17t14.5 21l230 216h-70l-192 -180q-20 -19 -31 -36.5t-11 -39.5q0 -14 4.5 -26t11.5 -21.5t13.5 -17t11.5 -11.5l215 -198h72z" />
    <glyph glyph-name="l" unicode="l" horiz-adv-x="152" 
d="M50 0h52v700h-52v-700z" />
    <glyph glyph-name="m" unicode="m" horiz-adv-x="816" 
d="M50 0h52v446q0 8 0.5 15.5t5.5 12.5q5 6 12 7.5t14 1.5h248v-483h52v483h179q17 0 39.5 -4t39.5 -22q14 -16 18 -37t4 -39v-381h52v377q0 33 -8 65.5t-33 54.5q-21 19 -50 26t-61 7h-492q-11 0 -29 -4.5t-31 -24.5q-8 -13 -10 -29t-2 -31v-441z" />
    <glyph glyph-name="n" unicode="n" horiz-adv-x="518" 
d="M50 0h52v463q0 3 0.5 8t2.5 8t6 3.5t8 0.5h188q26 0 47.5 -6t38.5 -27q14 -17 18.5 -39t4.5 -56v-355h52v368q0 55 -14.5 83t-26.5 40q-24 24 -54.5 31.5t-68.5 7.5h-190q-12 0 -26.5 -3t-25.5 -17q-8 -11 -10 -24.5t-2 -24.5v-461z" />
    <glyph glyph-name="o" unicode="o" horiz-adv-x="584" 
d="M30 268q0 -86 20 -137.5t46 -76.5q22 -21 48.5 -33t53.5 -18t51.5 -7.5t42.5 -1.5t42.5 1.5t51.5 7.5t53.5 18t48.5 33q25 25 45.5 76.5t20.5 137.5q0 22 -2 49.5t-9 56t-20 56t-35 48.5q-20 19 -43.5 30.5t-49 17.5t-52 8t-51.5 2t-51.5 -2t-52 -8t-49.5 -17.5
t-43 -30.5q-22 -21 -35 -48.5t-20 -56t-9 -56t-2 -49.5zM86 263q0 17 0.5 40.5t4.5 48t12.5 47.5t24.5 41q15 17 35.5 26.5t43 14.5t44.5 6.5t41 1.5t41 -1.5t44.5 -6.5t43 -14.5t35.5 -26.5q16 -18 24.5 -41t12.5 -47.5t4.5 -48t0.5 -40.5q0 -16 -0.5 -38t-4.5 -45.5
t-13 -46.5t-25 -41q-16 -17 -35.5 -27.5t-41.5 -15.5t-44 -6.5t-42 -1.5t-42 1.5t-44 6.5t-41.5 15.5t-35.5 27.5q-17 18 -25.5 41t-12.5 46.5t-4.5 45.5t-0.5 38z" />
    <glyph glyph-name="p" unicode="p" horiz-adv-x="512" 
d="M102 0h150q64 0 110 16t78 63q29 44 35.5 93.5t6.5 100.5q0 24 -1 49.5t-6.5 51t-17 50t-31.5 45.5t-42 33t-43.5 18.5t-40.5 8t-32 1.5h-134q-11 0 -27.5 -2.5t-31.5 -13.5q-6 -5 -15.5 -17t-9.5 -33v-634h52v170zM102 47v410q0 5 1.5 9.5t6.5 9.5q3 2 7.5 4.5t8.5 2.5
h153q36 0 72.5 -17.5t55.5 -59.5q9 -20 14 -52.5t5 -87.5q0 -52 -6 -91.5t-24 -67.5q-20 -31 -53.5 -45.5t-69.5 -14.5h-171z" />
    <glyph glyph-name="q" unicode="q" horiz-adv-x="517" 
d="M467 -170v611q0 16 -1 32.5t-12 30.5q-5 7 -19.5 16.5t-42.5 9.5h-168q-56 0 -89.5 -18t-50.5 -39q-19 -23 -30 -51.5t-16 -58t-6.5 -56.5t-1.5 -48q0 -20 1 -44t5 -49.5t12 -50t22 -45.5q15 -23 34 -36.5t38.5 -21t38 -10t34.5 -2.5h200v-170h52zM415 47h-193
q-36 0 -59 11.5t-36.5 26.5t-20 30.5t-8.5 24.5q-3 13 -5.5 29.5t-4 33t-2 32.5t-0.5 29q0 15 0.5 33.5t2.5 37t5.5 36.5t9.5 33q17 46 50.5 62.5t81.5 16.5h140q7 0 14 -1t14 -6t9 -12t2 -13v-404z" />
    <glyph glyph-name="r" unicode="r" horiz-adv-x="253" 
d="M50 0h52v336q0 32 5 61t22 49q22 25 51 31t51 6h32v47h-36q-54 0 -83.5 -13.5t-46.5 -29.5q-30 -29 -38.5 -63.5t-8.5 -75.5v-348z" />
    <glyph glyph-name="s" unicode="s" horiz-adv-x="504" 
d="M39 0h306q16 0 39.5 3t43.5 17q15 10 24 24t14 29t6.5 30.5t1.5 29.5q0 26 -6.5 49t-31.5 43q-23 19 -58 29t-83 21l-96 22q-7 1 -19.5 4.5t-26 8t-26 10.5t-19.5 13q-15 15 -18.5 35t-3.5 34q0 11 2.5 30t16.5 33q13 13 31.5 15.5t27.5 2.5h275v47h-254q-38 0 -70.5 -7
t-57.5 -39q-27 -34 -27 -86q0 -22 6 -45t23 -43q4 -5 12.5 -12.5t22.5 -15.5t35.5 -16t51.5 -15l92 -21l49.5 -12t35.5 -9.5t24.5 -9.5t15.5 -11t13 -19t7 -36q0 -14 -3 -32.5t-10 -28.5q-8 -11 -23.5 -18t-38.5 -7h-304v-47z" />
    <glyph glyph-name="t" unicode="t" horiz-adv-x="277" 
d="M287 0v47h-28q-45 0 -65 3.5t-29 9.5q-12 9 -18.5 23.5t-9 32.5t-2.5 37v36v294h146v47h-146v170h-52v-170h-73v-47h73v-305q0 -48 5.5 -85.5t30.5 -61.5q12 -12 27.5 -18.5t32 -9.5t33.5 -3h35h40z" />
    <glyph glyph-name="u" unicode="u" horiz-adv-x="522" 
d="M472 84v446h-52v-439q0 -6 -1 -15.5t-9 -17.5q-6 -6 -15.5 -8.5t-19.5 -2.5h-147q-32 0 -60 6t-45 29q-8 11 -14.5 31.5t-6.5 62.5v354h-52v-370q0 -13 1 -28.5t5.5 -32t13 -33t24.5 -30.5q26 -23 56.5 -29.5t72.5 -6.5h144q22 0 43.5 2t36.5 14q17 14 21 33t4 35z" />
    <glyph glyph-name="v" unicode="v" horiz-adv-x="458" 
d="M43 530h-53l184 -490q11 -29 25.5 -37.5t29.5 -8.5t29.5 8.5t25.5 37.5l184 490h-53l-171 -462q-2 -5 -6.5 -13.5t-8.5 -8.5t-8.5 8.5t-6.5 13.5z" />
    <glyph glyph-name="w" unicode="w" horiz-adv-x="686" 
d="M42 530h-52l130 -492q5 -17 15.5 -30.5t35.5 -13.5q15 0 24.5 5t15.5 12t9 14.5t5 13.5l110 414q1 5 3 11.5t5 6.5t5 -6.5t3 -11.5l110 -414q1 -6 4.5 -13.5t9.5 -14.5t15.5 -12t24.5 -5q25 0 35.5 13.5t15.5 30.5l130 492h-52l-119 -468q-2 -5 -4.5 -10.5t-6.5 -5.5
q-5 0 -7 6.5t-3 8.5l-113 431q-8 28 -22 36t-26 8t-26 -8t-22 -36l-113 -431q-1 -2 -3 -8.5t-7 -6.5q-4 0 -6.5 5.5t-4.5 10.5z" />
    <glyph glyph-name="x" unicode="x" horiz-adv-x="430" 
d="M440 0l-196 272l187 258h-61l-155 -219l-155 219h-61l188 -258l-197 -272h63l162 233l162 -233h63z" />
    <glyph glyph-name="y" unicode="y" horiz-adv-x="497" 
d="M507 530h-56l-209 -465l-196 465h-56l224 -527l-80 -174h56z" />
    <glyph glyph-name="z" unicode="z" horiz-adv-x="441" 
d="M85 0h336v47h-336h-6t-3 5t3 8t5 6l319 378q6 8 10.5 21t4.5 22q0 15 -11 29t-33 14h-339v-47h315q5 0 8.5 -1.5t3.5 -7.5q0 -5 -3.5 -8t-6.5 -7l-306 -359q-8 -9 -17 -23.5t-9 -31.5q0 -15 7 -24t16.5 -13.5t21 -6t20.5 -1.5z" />
    <glyph glyph-name="braceleft" unicode="{" horiz-adv-x="296" 
d="M113 288q14 5 22 14.5t11.5 20.5t4.5 23.5t1 23.5v138q0 13 1 30t5 34.5t13 34.5t26 30q12 10 29 16.5t40 4.5v46q-20 1 -41 -4t-44 -19q-21 -14 -35 -30.5t-22.5 -34t-13 -35t-5.5 -32.5q0 -4 -0.5 -12.5t-1 -18.5l-1 -20t-0.5 -16v-127q0 -26 -16 -38t-36 -14v-38
q20 -2 36 -14t16 -38v-127q0 -6 0.5 -16l1 -20t1 -18.5t0.5 -12.5q1 -15 5.5 -32.5t13 -35t22.5 -34.5t35 -30q23 -14 44 -19t41 -4v46q-23 -2 -40 4.5t-29 16.5q-17 13 -26 30t-13 34.5t-5 34.5t-1 30v138q0 11 -1 23.5t-4.5 23.5t-11.5 20.5t-22 14.5v8z" />
    <glyph glyph-name="bar" unicode="|" horiz-adv-x="150" 
d="M50 -163h50v903h-50v-903z" />
    <glyph glyph-name="braceright" unicode="}" horiz-adv-x="296" 
d="M183 280q-14 -5 -22 -14.5t-12 -20.5t-4.5 -23.5t-0.5 -23.5v-138q0 -13 -1 -30t-5 -34.5t-13.5 -34.5t-25.5 -30q-12 -10 -29 -16.5t-40 -4.5v-46q20 -1 41 4t44 19q21 13 35 30t22.5 34.5t12.5 35t6 32.5q0 4 0.5 12.5t1 18.5l1 20t0.5 16v127q0 26 16 38t36 14v38
q-20 2 -36 14t-16 38v127q0 6 -0.5 16l-1 20t-1 18.5t-0.5 12.5q-2 15 -6 32.5t-12.5 35t-22.5 34t-35 30.5q-23 14 -44 19t-41 4v-46q23 2 40 -4.5t29 -16.5q16 -13 25.5 -30t13.5 -34.5t5 -34.5t1 -30v-138q0 -11 0.5 -23.5t4.5 -23.5t12 -20.5t22 -14.5v-8z" />
    <glyph glyph-name="asciitilde" unicode="~" horiz-adv-x="533" 
d="M65 285q9 14 23 29.5t31 24.5q17 10 31 12t18 2q23 0 41.5 -9.5l33.5 -17.5l45 -26q19 -11 35 -16t39 -5q24 0 43.5 6t39.5 20q17 12 32 28.5t26 33.5l-35 31q-8 -14 -19.5 -27.5t-23.5 -22.5q-26 -21 -58 -21q-22 0 -38 7t-30 15l-54 32q-13 8 -30.5 14t-43.5 6
q-24 0 -44.5 -7t-37.5 -18t-32.5 -27.5t-26.5 -31.5z" />
    <glyph glyph-name="afii10051" unicode="&#x20ac;" horiz-adv-x="772" 
d="M160 0h54v330h360q23 0 41.5 -8t28.5 -21q13 -16 16.5 -43t3.5 -75q0 -28 -2.5 -59t-18.5 -50q-17 -20 -38.5 -23t-42.5 -3h-144v-48h173q10 0 22.5 0.5t25.5 4.5t26 12t24 22q13 17 23 52t10 103q0 14 -1 32t-4.5 36.5t-10.5 37t-19 33.5q-25 30 -57 37.5t-57 7.5h-359
v274h297v48h-531v-48h180v-652z" />
    <glyph glyph-name="afii10052" horiz-adv-x="501" 
d="M54 0v605q0 10 0.5 20t5.5 16q8 10 23.5 10.5t26.5 0.5h391v48h-423q-13 0 -28.5 -4t-29.5 -18t-17 -28.5t-3 -28.5v-621h54zM298 879l-123 -100l31 -39l123 100z" />
    <glyph glyph-name="quotesinglbase" unicode="&#x201a;" horiz-adv-x="200" 
d="M45 -86l105 156l-45 30l-105 -156z" />
    <glyph glyph-name="afii10100" unicode="&#x192;" horiz-adv-x="398" 
d="M52 0v445q0 5 0.5 14.5t5.5 15.5q6 8 22 8h318v47h-338q-14 0 -28.5 -4.5t-23.5 -20.5q-7 -11 -7.5 -25t-0.5 -26v-454h52zM236 699l-123 -100l31 -39l123 100z" />
    <glyph glyph-name="quotedblbase" unicode="&#x201e;" horiz-adv-x="345" 
d="M0 -56l45 -30l105 156l-45 30zM145 -56l45 -30l105 156l-45 30z" />
    <glyph glyph-name="ellipsis" unicode="&#x2026;" horiz-adv-x="480" 
d="M130 0v87h-60v-87h60zM270 0v87h-60v-87h60zM410 0v87h-60v-87h60z" />
    <glyph glyph-name="dagger" unicode="&#x2020;" horiz-adv-x="446" 
d="M250 -170v612h166v48h-166v210h-54v-210h-166v-48h166v-612h54z" />
    <glyph glyph-name="daggerdbl" unicode="&#x2021;" horiz-adv-x="446" 
d="M196 -170h54v196h166v48h-166v368h166v48h-166v210h-54v-210h-166v-48h166v-368h-166v-48h166v-196z" />
    <glyph glyph-name="accent" unicode="&#x2c6;" horiz-adv-x="2" 
d="M-209 699l-123 -100l31 -39l123 100z" />
    <glyph glyph-name="perthousand" unicode="&#x2030;" horiz-adv-x="1000" 
d="M182 706q-8 0 -20 -1t-24.5 -4t-25.5 -9t-24 -17q-13 -13 -20.5 -30t-11.5 -35t-5 -36.5t-1 -34.5t1 -34.5t5 -36.5t11.5 -35t20.5 -30q11 -11 24 -17t25.5 -9t24.5 -4t20 -1t20 1t24.5 4t25.5 9t24 17q13 13 20.5 30t11.5 35t5 36.5t1 34.5t-1 34.5t-5 36.5t-11.5 35
t-20.5 30q-11 11 -24 17t-25.5 9t-24.5 4t-20 1zM100 539q0 49 6.5 70t13.5 30q14 17 30.5 21.5t31.5 4.5t31.5 -4.5t30.5 -21.5q7 -9 13.5 -30t6.5 -70t-6.5 -70t-13.5 -30q-14 -17 -30.5 -21.5t-31.5 -4.5t-31.5 4.5t-30.5 21.5q-7 9 -13.5 30t-6.5 70zM160 0h47l318 700
h-47zM499 328q-8 0 -20 -1t-24.5 -4t-25.5 -9t-24 -17q-13 -13 -20.5 -30t-11.5 -35t-5 -36.5t-1 -34.5t1 -34.5t5 -36.5t11.5 -35t20.5 -30q11 -11 24 -17t25.5 -9t24.5 -4t20 -1t20 1t24.5 4t25.5 9t24 17q13 13 20.5 30t11.5 35t5 36.5t1 34.5t-1 34.5t-5 36.5t-11.5 35
t-20.5 30q-11 11 -24 17t-25.5 9t-24.5 4t-20 1zM417 161q0 26 3 53t19 47q14 18 29.5 22t30.5 4t30.5 -4t29.5 -22q16 -20 19 -47t3 -53t-3 -53t-19 -47q-14 -18 -29.5 -22t-30.5 -4t-30.5 4t-29.5 22q-16 20 -19 47t-3 53zM818 328q-8 0 -20 -1t-24.5 -4t-25.5 -9t-24 -17
q-13 -13 -20.5 -30t-11.5 -35t-5 -36.5t-1 -34.5t1 -34.5t5 -36.5t11.5 -35t20.5 -30q11 -11 24 -17t25.5 -9t24.5 -4t20 -1t20 1t24.5 4t25.5 9t24 17q13 13 20.5 30t11.5 35t5 36.5t1 34.5t-1 34.5t-5 36.5t-11.5 35t-20.5 30q-11 11 -24 17t-25.5 9t-24.5 4t-20 1z
M736 161q0 26 3 53t19 47q14 18 29.5 22t30.5 4t30.5 -4t29.5 -22q16 -20 19 -47t3 -53t-3 -53t-19 -47q-14 -18 -29.5 -22t-30.5 -4t-30.5 4t-29.5 22q-16 20 -19 47t-3 53z" />
    <glyph glyph-name="afii10058" unicode="&#x160;" horiz-adv-x="1093" 
d="M-20 0h61l406 642q7 11 18 11q4 0 10.5 -2.5t6.5 -15.5v-551q0 -16 2.5 -31.5t14.5 -29.5q13 -15 27.5 -19t26.5 -4h322q31 0 54.5 6.5t40 15.5t26.5 18.5t15 15.5q11 14 17.5 31.5t9.5 36.5t4 36.5t1 31.5q0 17 -1 36t-4 37.5t-8 35t-13 28.5q-13 19 -42.5 35.5
t-85.5 16.5h-353v255q0 36 -19 54t-45 18q-17 0 -29 -5.5t-21 -13.5t-15 -17t-10 -16zM536 333h360q10 0 28.5 -2.5t32.5 -14.5q10 -9 16 -24t8.5 -32.5t3 -35.5t0.5 -34q0 -30 -3 -60.5t-22 -50.5q-14 -15 -38 -23t-50 -8h-291q-11 0 -22 1.5t-17 10.5q-3 5 -4.5 14.5
t-1.5 17.5v241z" />
    <glyph glyph-name="guilsinglleft" unicode="&#x2039;" horiz-adv-x="289" 
d="M239 488l-43 29l-131 -192q-6 -9 -10.5 -18.5t-4.5 -25.5t4.5 -25.5t10.5 -18.5l131 -192l43 29l-124 179q-4 6 -7.5 13t-3.5 15t3.5 15t7.5 13z" />
    <glyph glyph-name="afii10059" unicode="&#x152;" horiz-adv-x="1189" 
d="M632 381v319h-54v-319h-454v319h-54v-700h54v333h454v-249q0 -16 2.5 -31.5t14.5 -29.5q13 -15 27.5 -19t26.5 -4h322q31 0 54.5 6.5t40 15.5t26.5 18.5t15 15.5q11 14 17.5 31.5t9.5 36.5t4 36.5t1 31.5q0 17 -1 36t-4 37.5t-8 35t-13 28.5q-13 19 -42.5 35.5
t-85.5 16.5h-353zM632 333h360q10 0 28.5 -2.5t32.5 -14.5q10 -9 16 -24t8.5 -32.5t3 -35.5t0.5 -34q0 -30 -3 -60.5t-22 -50.5q-14 -15 -38 -23t-50 -8h-291q-11 0 -22 1.5t-17 10.5q-3 5 -4.5 14.5t-1.5 17.5v241z" />
    <glyph glyph-name="afii10061" horiz-adv-x="626" 
d="M70 0h54v700h-54v-700zM656 0l-387 298q-17 13 -34.5 28.5t-17.5 32.5q0 8 5 15.5t12 14t14.5 12t12.5 9.5l358 290h-78l-328 -264q-17 -14 -33.5 -34.5t-16.5 -41.5t17 -44.5t44 -44.5l351 -271h81zM384 879l-123 -100l31 -39l123 100z" />
    <glyph glyph-name="afii10060" horiz-adv-x="752" 
d="M160 0h54v330h352q11 0 27.5 -2.5t30.5 -14.5q17 -14 20.5 -30.5t3.5 -26.5v-256h54v247q0 29 -7.5 57.5t-36.5 49.5q-21 15 -48 19.5t-50 4.5h-346v274h297v48h-531v-48h180v-652z" />
    <glyph glyph-name="afii10145" horiz-adv-x="694" 
d="M320 -169h54v169h185q12 0 26.5 1t25.5 12q9 9 11 19.5t2 21.5v646h-54v-619q0 -11 -1 -16t-3 -8q-5 -7 -10.5 -8t-13.5 -1h-390q-8 0 -13.5 1t-10.5 8q-2 3 -3 8t-1 16v619h-54v-646q0 -11 2 -21.5t11 -19.5q11 -11 25.5 -12t26.5 -1h185v-169z" />
    <glyph glyph-name="afii10099" horiz-adv-x="515" 
d="M70 0h52v483h199q22 0 44 -5t42 -27q8 -10 17 -29t9 -50v-217q0 -23 -4 -52.5t-9 -52.5q-8 -30 -18.5 -53.5t-24.5 -45.5q-20 -31 -45.5 -63t-49.5 -58h67q22 23 39 45.5t33 47.5q18 29 30 54t20 58q6 25 10 55.5t4 50.5v211q0 40 -8.5 76.5t-37.5 63.5q-23 21 -53 29.5
t-70 8.5h-194v71h154v47h-154v52h-52v-52h-80v-47h80v-601z" />
    <glyph glyph-name="quoteleft" unicode="&#x2018;" horiz-adv-x="200" 
d="M150 544l-105 156l-45 -30l105 -156z" />
    <glyph glyph-name="quoteright" unicode="&#x2019;" horiz-adv-x="210" 
d="M75 514l105 156l-45 30l-105 -156z" />
    <glyph glyph-name="quotedblleft" unicode="&#x201c;" horiz-adv-x="355" 
d="M75 700l-45 -30l105 -156l45 30zM220 700l-45 -30l105 -156l45 30z" />
    <glyph glyph-name="quotedblright" unicode="&#x201d;" horiz-adv-x="355" 
d="M30 544l45 -30l105 156l-45 30zM175 544l45 -30l105 156l-45 30z" />
    <glyph glyph-name="bullet" unicode="&#x2022;" horiz-adv-x="540" 
d="M70 348q0 -41 16 -77.5t43 -63.5t63.5 -43t77.5 -16t77.5 16t63.5 43t43 63.5t16 77.5t-16 77.5t-43 63.5t-63.5 43t-77.5 16t-77.5 -16t-63.5 -43t-43 -63.5t-16 -77.5z" />
    <glyph glyph-name="endash" unicode="&#x2013;" horiz-adv-x="592" 
d="M50 242h492v58h-492v-58z" />
    <glyph glyph-name="emdash" unicode="&#x2014;" horiz-adv-x="1140" 
d="M70 242h1000v58h-1000v-58z" />
    <glyph glyph-name="Accent" unicode="&#x2dc;" horiz-adv-x="2" 
d="M-297 879l-123 -100l31 -39l123 100z" />
    <glyph glyph-name="trademark" unicode="&#x2122;" horiz-adv-x="900" 
d="M207 300v357h160v44h-367v-44h160v-357h47zM784 651q2 4 5 8t6 4q2 0 5 -1.5t3 -9.5v-352h47v368q0 13 -5 20.5t-11.5 11.5t-13 5t-10.5 1q-7 0 -15.5 -1t-17.5 -5t-17 -12t-13 -22l-114 -316q-2 -3 -4.5 -8t-5.5 -5t-5.5 5t-4.5 8l-114 316q-2 5 -5.5 12t-10.5 13
t-18.5 10.5t-28.5 4.5q-4 0 -10.5 -1t-13 -5t-11.5 -11.5t-5 -20.5v-368h47v352q0 8 3 9.5t5 1.5q3 0 6 -4t5 -8l112 -312q5 -15 17 -29.5t32 -14.5t32 14.5t17 29.5z" />
    <glyph glyph-name="afii10106" unicode="&#x161;" horiz-adv-x="825" 
d="M-10 0h57l283 474q6 11 12 13.5t10 2.5q6 0 12.5 -5.5t6.5 -14.5v-409q0 -13 1.5 -26t11.5 -23q9 -9 21 -10.5t23 -1.5h230q27 0 52 3t46 23q13 13 21 30.5t12 36t5 35.5t1 29q0 26 -6 58.5t-31 56.5q-22 21 -47.5 26t-42.5 5h-245v174q0 27 -19 43t-51 16
q-17 0 -37 -9.5t-39 -41.5zM423 256h245q22 0 34.5 -7.5t18.5 -15.5q5 -5 11.5 -22t6.5 -55q0 -18 -3 -43t-14 -41q-12 -17 -26.5 -21t-27.5 -4h-220q-6 0 -12 0.5t-10 6.5q-3 5 -3 10v14v178z" />
    <glyph glyph-name="guilsinglright" unicode="&#x203a;" horiz-adv-x="289" 
d="M50 488l124 -179q4 -6 7.5 -13t3.5 -15t-3.5 -15t-7.5 -13l-124 -179l43 -29l131 192q6 9 10.5 18.5t4.5 25.5t-4.5 25.5t-10.5 18.5l-131 192z" />
    <glyph glyph-name="afii10107" unicode="&#x153;" horiz-adv-x="858" 
d="M50 530v-530h52v253h308v-192q0 -13 1.5 -26t11.5 -23q9 -9 21 -10.5t23 -1.5h224q27 0 52 3t46 23q13 13 21 30.5t12 35.5t5 34.5t1 27.5q0 26 -6 58.5t-31 56.5q-22 21 -47.5 26t-42.5 5h-239v230h-52v-230h-308v230h-52zM462 253h239q10 0 25 -3.5t28 -19.5
q13 -17 15.5 -39t2.5 -36q0 -36 -5 -54.5t-12 -28.5q-12 -17 -26.5 -21t-27.5 -4h-214q-5 0 -11.5 0.5t-10.5 6.5q-2 3 -2.5 11.5t-0.5 12.5v175z" />
    <glyph glyph-name="afii10109" horiz-adv-x="448" 
d="M102 0v530h-52v-530h52zM458 0l-259 244q-5 5 -10.5 13.5t-5.5 15.5q0 10 8.5 19.5t13.5 14.5l236 223h-71l-202 -188q-13 -12 -27 -31t-14 -38q0 -12 7 -28t27 -35l223 -210h74zM270 699l-123 -100l31 -39l123 100z" />
    <glyph glyph-name="afii10108" horiz-adv-x="535" 
d="M70 0h52v483h199q22 0 44.5 -5t41.5 -27q18 -21 22 -48.5t4 -44.5v-358h52v352q0 40 -8.5 76.5t-37.5 63.5q-23 21 -53 29.5t-70 8.5h-194v71h154v47h-154v52h-52v-52h-80v-47h80v-601z" />
    <glyph glyph-name="afii10193" unicode="&#x178;" horiz-adv-x="522" 
d="M233 -176h56v176h114q14 0 29 2.5t27 16.5q10 12 11.5 26t1.5 25v460h-52v-458q0 -13 -1.5 -16.5t-2.5 -4.5q-3 -3 -8.5 -3.5t-7.5 -0.5h-278q-2 0 -7.5 0.5t-8.5 3.5q-1 1 -2.5 4.5t-1.5 16.5v458h-52v-460q0 -11 1.5 -25t11.5 -26q12 -14 27 -16.5t29 -2.5h114v-176z
" />
    <glyph glyph-name="afii10062" unicode="&#xa1;" horiz-adv-x="610" 
d="M282 0l358 700h-60l-267 -527l-283 527h-60l315 -581l-63 -119h60zM160 836q6 -32 21.5 -51.5t29.5 -30.5q22 -16 45.5 -20t48.5 -4t48.5 4t45.5 20q14 11 29.5 30.5t21.5 51.5h-58q-2 -15 -9 -25t-13 -15q-14 -13 -31 -15.5t-34 -2.5t-34 2.5t-31 15.5q-6 5 -13 15
t-9 25h-58z" />
    <glyph glyph-name="afii10110" unicode="&#xa2;" horiz-adv-x="516" 
d="M516 528h-56l-208 -463l-196 465h-56l224 -527l-79 -173h56zM258 607q-23 0 -39 5.5t-26 14.5q-8 7 -15 19t-11 24h-60q6 -20 18.5 -42t30.5 -37q22 -19 48.5 -25.5t53.5 -6.5t53.5 6.5t48.5 25.5q18 15 30.5 37t18.5 42h-60q-4 -12 -11 -24t-15 -19q-10 -9 -26 -14.5
t-39 -5.5z" />
    <glyph glyph-name="afii10057" unicode="&#xa3;" horiz-adv-x="392" 
d="M-20 0h139q55 0 92 21.5t57 42.5q26 28 40 68t14 103v465h-54v-465q0 -38 -8.5 -77.5t-37.5 -67.5q-15 -14 -42.5 -27.5t-71.5 -13.5h-128v-49z" />
    <glyph glyph-name="currency" unicode="&#xa4;" horiz-adv-x="572" 
d="M86 310q0 -30 10 -62t32 -60l-58 -57l36 -37l58 59q32 -27 65 -35t57 -8t57 8t65 35l58 -59l36 36l-58 58q22 28 32 60t10 62t-10 62t-32 60l58 58l-36 36l-58 -59q-32 27 -65 35t-57 8q-30 0 -62 -10t-61 -32l-57 58l-36 -36l58 -58q-22 -28 -32 -60t-10 -62zM138 310
q0 30 11.5 57t32 47.5t47.5 32t57 11.5t57 -11.5t47.5 -32t32 -47.5t11.5 -57t-11.5 -57t-32 -47.5t-47.5 -32t-57 -11.5t-57 11.5t-47.5 32t-32 47.5t-11.5 57z" />
    <glyph glyph-name="afii10050" unicode="&#xa5;" horiz-adv-x="547" 
d="M70 0h54v608q0 17 1 24.5t4 11.5q5 8 11.5 8.5t12.5 0.5h356q12 0 24.5 1t20.5 9q10 8 11.5 21t1.5 21v120h-54v-94q0 -11 -1.5 -16.5t-3.5 -8.5q-5 -5 -11.5 -5.5t-12.5 -0.5h-342q-25 0 -39 -6.5t-20 -14.5q-9 -11 -11 -26.5t-2 -29.5v-623z" />
    <glyph glyph-name="brokenbar" unicode="&#xa6;" horiz-adv-x="150" 
d="M50 440h50v300h-50v-300zM50 -63h50v300h-50v-300z" />
    <glyph glyph-name="section" unicode="&#xa7;" horiz-adv-x="484" 
d="M98 -174h141q23 0 50 3.5t50 17.5q21 14 36 39t15 57q0 21 -5.5 37.5t-14.5 30t-20 24t-22 19.5l-64 54q29 -1 59 5t51 18q25 14 42.5 38.5t17.5 65.5q0 31 -13.5 63t-42.5 56l-204 173q-15 13 -21 30t-6 31q0 28 17.5 46t46.5 18h176v48h-173q-35 0 -57 -10.5t-33 -21.5
q-15 -14 -24 -35t-9 -45q0 -37 17 -60t34 -38l69 -59q-32 0 -63 -10t-52 -27q-15 -12 -30.5 -36t-15.5 -65q0 -38 13 -63.5t36 -45.5l202 -171q15 -13 24 -29t9 -40q0 -26 -11 -40t-25.5 -21t-28 -8t-18.5 -1h-153v-48zM219 146l-82 70q-31 27 -31 73q0 29 11.5 49.5
t40.5 33.5q13 6 30 9t32.5 4.5t27.5 1.5h16l84 -71q30 -26 30 -66q0 -23 -6 -39.5t-15.5 -27t-22.5 -17t-27 -10.5q-18 -5 -43 -7.5t-45 -2.5z" />
    <glyph glyph-name="afii10023" unicode="&#xa8;" horiz-adv-x="620" 
d="M580 0v48h-401q-9 0 -24.5 2t-20.5 7t-7.5 13.5t-2.5 14.5v249h442v48h-442v225q0 5 1.5 16.5t9.5 18.5q5 5 16.5 7.5t19.5 2.5h405v48h-413q-20 0 -39 -4t-34 -22q-4 -5 -12 -20.5t-8 -46.5v-510q0 -20 3 -40t19 -36q17 -17 36 -19t37 -2h415zM460 787v78h-54v-78h54z
M261 787v78h-54v-78h54z" />
    <glyph glyph-name="copyright" unicode="&#xa9;" horiz-adv-x="834" 
d="M417 708q-30 0 -62 -1.5t-63.5 -7t-61.5 -15t-55 -25.5q-42 -26 -66.5 -63t-37.5 -78.5t-17 -84.5t-4 -82q0 -44 4.5 -88t17.5 -84.5t37.5 -75.5t65.5 -61q54 -35 116 -42.5t126 -7.5t126 7.5t116 42.5q40 26 65 61t38 75.5t17.5 84.5t4.5 88q0 39 -4 82t-17 84.5
t-37.5 78.5t-66.5 63q-26 16 -55.5 25.5t-61 15t-63.5 7t-62 1.5zM108 351q0 34 3 71t13 72t28.5 65.5t48.5 52.5q6 4 20.5 12.5t40 16t64 13.5t91.5 6t91.5 -6t64 -13.5t40 -16t20.5 -12.5q30 -22 48.5 -52.5t28.5 -65.5t13 -72t3 -71q0 -27 -2 -62.5t-11.5 -72.5t-28 -71
t-51.5 -58q-23 -17 -51.5 -26.5t-57.5 -14t-57 -5.5t-50 -1q-23 0 -50.5 1t-56.5 5.5t-57.5 14t-51.5 26.5q-33 24 -51.5 58t-28 71t-11.5 72.5t-2 62.5zM569 149v48h-196q-26 0 -48.5 8.5t-38.5 37.5q-10 19 -14 45t-4 48q0 31 5 63.5t16 52.5q4 7 11 16t18.5 17t26.5 13.5
t36 5.5h176v48h-176q-16 0 -34 -2t-35.5 -8.5t-34.5 -18t-32 -30.5q-25 -33 -30 -72.5t-5 -71.5q0 -40 5.5 -74t28.5 -66q27 -38 59 -49t67 -11h199z" />
    <glyph glyph-name="afii10053" unicode="&#xaa;" horiz-adv-x="656" 
d="M606 0v48h-274q-50 0 -87.5 14t-64.5 38q-25 22 -39.5 50t-22 58t-9.5 62t-1 63h474v48h-474q-1 25 0.5 51t7.5 51.5t16.5 50t27.5 45.5q29 35 70.5 54t87.5 19h278v48h-254q-18 0 -43 -2t-53.5 -9t-58 -21.5t-55.5 -39.5q-29 -27 -45 -60.5t-24.5 -69t-10.5 -72
t-2 -70.5q0 -52 4 -95.5t14.5 -79.5t28.5 -65.5t46 -52.5q42 -35 93 -49t106 -14h264z" />
    <glyph glyph-name="guillemotleft" unicode="&#xab;" horiz-adv-x="398" 
d="M239 488l-43 29l-131 -192q-6 -9 -10.5 -18.5t-4.5 -25.5t4.5 -25.5t10.5 -18.5l131 -192l43 29l-124 179q-4 6 -7.5 13t-3.5 15t3.5 15t7.5 13zM348 429l-42 29l-91 -133q-7 -10 -12.5 -22t-5.5 -22t5.5 -22t12.5 -22l91 -133l42 29l-81 116q-9 13 -12.5 20t-3.5 12
q0 7 7 18l9 14z" />
    <glyph glyph-name="logicalnot" unicode="&#xac;" horiz-adv-x="566" 
d="M496 88v246h-426v-48h376v-198h50z" />
    <glyph glyph-name="hyphen" unicode="&#xad;" horiz-adv-x="400" 
d="M50 242h300v58h-300v-58z" />
    <glyph glyph-name="registered" unicode="&#xae;" horiz-adv-x="546" 
d="M50 495q0 -23 2 -46.5t8 -46t18 -43t32 -37.5q19 -16 40.5 -24t43 -11t41.5 -3h38h37q21 0 42.5 3t43 11t40.5 24q20 17 32 37.5t18 43t8 46t2 46.5q0 22 -2 46t-8 46.5t-18 43t-32 37.5q-19 16 -40.5 24t-43 11t-42.5 3h-37h-38q-20 0 -41.5 -3t-43 -11t-40.5 -24
q-20 -17 -32 -37.5t-18 -43t-8 -46.5t-2 -46zM90 495q0 11 0.5 27t3.5 33.5t9 35t17 31.5q15 21 33.5 31t39 14.5t40.5 4.5h40h39q21 0 41.5 -4.5t39 -14.5t33.5 -31q10 -14 16 -31.5t9 -35t4 -33.5t1 -27t-1 -27t-4 -33.5t-9 -35t-16 -31.5q-15 -21 -33.5 -31t-39 -14.5
t-41.5 -4.5h-39h-40q-20 0 -40.5 4.5t-39 14.5t-33.5 31q-11 14 -17 31.5t-9 35t-3.5 33.5t-0.5 27zM208 373v190q0 2 0.5 8t2.5 8q2 1 6.5 1.5t7.5 0.5h81q5 0 13 -1.5t13 -8.5q6 -8 6 -18v-35q0 -10 -8 -16q-3 -2 -14 -3t-14 -1h-35q-6 0 -13.5 -2t-7.5 -16
q0 -11 3.5 -15.5t8.5 -9.5l81 -82h54l-91 92h25q7 0 16 2t17.5 9t14 21.5t5.5 40.5q0 16 -4 36.5t-19 31.5q-10 8 -22 9t-25 1h-99q-15 0 -23 -2.5t-13 -7.5t-6 -11.5t-1 -12.5v-209h40z" />
    <glyph glyph-name="afii10056" unicode="&#xaf;" horiz-adv-x="220" 
d="M137 0v700h-54v-700h54zM190 762v79h-54v-79h54zM84 762v79h-54v-79h54z" />
    <glyph glyph-name="degree" unicode="&#xb0;" horiz-adv-x="320" 
d="M50 674q0 -23 8.5 -43t23.5 -35t35 -23.5t43 -8.5q22 0 42 8.5t35 23.5t24 35t9 43q0 22 -9 42t-24 35t-35 24t-42 9q-23 0 -43 -9t-35 -24t-23.5 -35t-8.5 -42zM90 674q0 29 20.5 49.5t49.5 20.5t49.5 -20.5t20.5 -49.5t-20.5 -49.5t-49.5 -20.5t-49.5 20.5t-20.5 49.5z
" />
    <glyph glyph-name="plusminus" unicode="&#xb1;" horiz-adv-x="566" 
d="M310 140v186h186v48h-186v186h-54v-186h-186v-48h186v-186h54zM496 50v48h-426v-48h426z" />
    <glyph glyph-name="afii10055" unicode="&#xb2;" horiz-adv-x="194" 
d="M124 0v700h-54v-700h54z" />
    <glyph glyph-name="afii10103" unicode="&#xb3;" horiz-adv-x="156" 
d="M52 0h52v530h-52v-530zM106 626v74h-56v-74h56z" />
    <glyph glyph-name="afii10098" unicode="&#xb4;" horiz-adv-x="404" 
d="M50 0h52v452q0 5 1 12t3 11q4 6 10 7t11 1h236q9 0 22.5 2t24.5 12q10 10 12 23t2 21v116h-52v-103v-8t-5 -9t-11.5 -6t-10.5 -1h-234q-11 0 -23.5 -2.5t-23.5 -14.5q-11 -11 -12.5 -22.5t-1.5 -25.5v-465z" />
    <glyph glyph-name="mu" unicode="&#xb5;" horiz-adv-x="522" 
d="M50 -178h52v242q19 -24 39.5 -37.5t41 -21t40 -9.5t34.5 -2q16 0 36 2.5t42 10.5t44 23.5t41 41.5v-72h52v530h-52v-353q0 -27 -14.5 -51t-34.5 -42q-26 -24 -54 -33.5t-59 -9.5q-38 0 -67 12.5t-48 32.5q-17 18 -29 43.5t-12 50.5v350h-52v-708z" />
    <glyph glyph-name="paragraph" unicode="&#xb6;" horiz-adv-x="540" 
d="M456 -170v823h54v47h-286q-25 0 -54.5 -6.5t-56.5 -29.5q-20 -17 -32.5 -38t-19.5 -44t-9 -46.5t-2 -44.5q0 -11 1 -28t4.5 -36t10 -38.5t18.5 -36.5q16 -23 46 -42.5t74 -19.5h96v-460h52v823h52v-823h52zM300 336h-73q-13 0 -27 1.5t-27.5 6.5t-26 15.5t-22.5 27.5
q-12 21 -16 51.5t-4 56.5q0 11 1 26.5t4 32t9 32.5t16 29q20 25 42 31.5t43 6.5h81v-317z" />
    <glyph glyph-name="periodcentered" unicode="&#xb7;" horiz-adv-x="160" 
d="M110 250v87h-60v-87h60z" />
    <glyph glyph-name="periodcentered" unicode="&#x2219;" horiz-adv-x="160" 
d="M110 250v87h-60v-87h60z" />
    <glyph glyph-name="afii10071" unicode="&#xb8;" horiz-adv-x="517" 
d="M473 0v47h-260q-26 0 -46 8.5t-34.5 21.5t-24 29.5t-13.5 32.5q-6 21 -8 53t-1 55h323q11 0 27.5 2.5t28.5 13.5q8 7 12.5 16.5t6.5 19t2.5 18.5t0.5 15q0 42 -10.5 71.5t-24.5 49.5t-28 31t-22 16q-32 19 -69.5 24.5t-65.5 5.5q-40 0 -85 -8.5t-81 -38.5
q-25 -21 -39.5 -47.5t-21.5 -55.5t-8.5 -59t-1.5 -58q0 -59 6 -108.5t37 -89.5q15 -20 33 -33t36.5 -20t36.5 -9.5t34 -2.5h260zM86 294q1 39 5 69t20 56q14 23 31 36t36.5 19t39.5 7.5t40 1.5q18 0 36 -1t36 -5.5t34.5 -13.5t30.5 -26q14 -16 25 -42.5t11 -65.5v-9
q0 -5 -2 -11t-6.5 -10.5t-13.5 -4.5h-323zM316 618h56v82h-56v-82zM194 618v82h-56v-82h56z" />
    <glyph glyph-name="afii61352" unicode="&#xb9;" horiz-adv-x="944" 
d="M633 700h-54v-633q0 -7 0.5 -12.5t-10.5 -5.5q-8 0 -11.5 6t-7.5 12l-349 594q-17 29 -33.5 38t-33.5 9q-34 0 -49 -20.5t-15 -50.5v-637h54v631q0 11 3.5 15.5t8.5 4.5q8 0 13 -7l7 -10l347 -591q18 -31 33.5 -41t35.5 -10q30 0 45.5 21.5t15.5 56.5v630zM684 333h210
v40h-210v-40zM684 522q0 -20 3.5 -43t21.5 -40q17 -17 40 -21t40 -4t40 4t40 21q18 17 21.5 40t3.5 43v76q0 20 -3.5 43t-21.5 40q-17 17 -40 21t-40 4t-40 -4t-40 -21q-18 -17 -21.5 -40t-3.5 -43v-76zM852 522q0 -13 -2 -28t-11 -26t-23 -13.5t-27 -2.5t-27 2.5t-23 13.5
t-11 26t-2 28v78q0 14 2 27.5t11 24.5q11 12 24.5 14t25.5 2t25.5 -2t24.5 -14q9 -11 11 -24.5t2 -27.5v-78z" />
    <glyph glyph-name="afii10101" unicode="&#xba;" horiz-adv-x="491" 
d="M461 0v47h-228q-31 0 -53 6.5t-37.5 17.5t-25.5 25.5t-16 29.5q-10 25 -15 62.5t-5 67.5h366v47h-363q0 27 6 61.5t19 57.5q12 21 28 33.5t32.5 18.5t33 7.5t29.5 1.5h222v47h-223q-14 0 -32.5 -1.5t-38.5 -7.5t-40.5 -17.5t-37.5 -31.5q-30 -35 -41 -86.5t-11 -108.5
q0 -50 5 -86t12.5 -61t15.5 -40t15 -24q18 -24 41.5 -37.5t48.5 -19.5t49 -7.5t44 -1.5h200z" />
    <glyph glyph-name="guillemotright" unicode="&#xbb;" horiz-adv-x="398" 
d="M50 429l81 -116l9 -14t7 -18q0 -5 -3.5 -12t-12.5 -20l-81 -116l42 -29l91 133q7 10 12.5 22t5.5 22t-5.5 22t-12.5 22l-91 133zM159 488l124 -179q4 -6 7.5 -13t3.5 -15t-3.5 -15t-7.5 -13l-124 -179l43 -29l131 192q6 9 10.5 18.5t4.5 25.5t-4.5 25.5t-10.5 18.5
l-131 192z" />
    <glyph glyph-name="afii10105" unicode="&#xbc;" horiz-adv-x="258" 
d="M-10 -178q14 -2 33 -2q20 0 41 3t42.5 10.5t39.5 21.5q20 16 32 34t18 36.5t8 35.5t2 30v539h-52v-529q0 -44 -10.5 -66t-30.5 -38q-19 -15 -46 -22t-77 -5v-48zM208 626v74h-56v-74h56z" />
    <glyph glyph-name="afii10054" unicode="&#xbd;" horiz-adv-x="646" 
d="M61 0h389q13 0 28 1.5t29.5 6t28.5 13.5t26 25q13 17 20 37.5t10 39t3.5 32t0.5 15.5q0 26 -8.5 57t-34.5 56q-18 17 -44 29t-58 23l-272 96q-25 9 -39.5 21.5t-21.5 26.5t-8.5 30t-1.5 33q0 18 2.5 42t18.5 41q13 14 33.5 20.5t39.5 6.5h361v48h-355q-42 0 -69 -11
t-42 -24q-32 -27 -39.5 -60.5t-7.5 -60.5q0 -29 6.5 -58.5t28.5 -54.5q14 -17 37 -30t49 -22l279 -96q29 -10 46.5 -23t26.5 -27.5t12 -31t3 -33.5q0 -37 -7 -60t-18.5 -36.5t-26 -18.5t-30.5 -5h-395v-48z" />
    <glyph glyph-name="afii10102" unicode="&#xbe;" horiz-adv-x="504" 
d="M39 0h306q16 0 39.5 3t43.5 17q15 10 24 24t14 29t6.5 30.5t1.5 29.5q0 26 -6.5 49t-31.5 43q-23 19 -58 29t-83 21l-96 22q-7 1 -19.5 4.5t-26 8t-26 10.5t-19.5 13q-15 15 -18.5 35t-3.5 34q0 11 2.5 30t16.5 33q13 13 31.5 15.5t27.5 2.5h275v47h-254q-38 0 -70.5 -7
t-57.5 -39q-27 -34 -27 -86q0 -22 6 -45t23 -43q4 -5 12.5 -12.5t22.5 -15.5t35.5 -16t51.5 -15l92 -21l49.5 -12t35.5 -9.5t24.5 -9.5t15.5 -11t13 -19t7 -36q0 -14 -3 -32.5t-10 -28.5q-8 -11 -23.5 -18t-38.5 -7h-304v-47z" />
    <glyph glyph-name="afii10104" unicode="&#xbf;" horiz-adv-x="156" 
d="M52 0h52v530h-52v-530zM156 590v79h-52v-79h52zM52 590v79h-52v-79h52z" />
    <glyph glyph-name="afii10017" unicode="&#xc0;" horiz-adv-x="672" 
d="M-10 0h58l85 204h406l85 -204h58l-268 634q-12 28 -29.5 51t-48.5 23q-16 0 -28 -6t-21 -16.5t-16 -24t-13 -27.5zM307 618l11.5 25.5t17.5 14.5t17.5 -14.5l11.5 -25.5l153 -366h-364z" />
    <glyph glyph-name="afii10018" unicode="&#xc1;" 
d="M598 700h-445q-15 0 -32 -4t-31 -19t-17 -34t-3 -36v-519q0 -15 2 -32.5t11 -29.5q7 -9 22.5 -17.5t46.5 -8.5h330q12 0 26 1t28.5 5.5t29 13t26.5 22.5q13 15 20.5 34t11.5 39t5.5 39t1.5 33q0 66 -12 97.5t-20 42.5q-25 33 -57.5 41t-61.5 8h-356v232q0 25 12 36
q5 5 15 6.5t24 1.5h423v48zM124 328h338q19 0 41 -2.5t41 -22.5q9 -10 15 -23.5t9 -28.5t4 -30.5t1 -29.5q0 -40 -6 -70t-23 -47q-19 -20 -41.5 -23t-40.5 -3h-277q-15 0 -31 1.5t-24 13.5q-2 4 -4 12t-2 31v222z" />
    <glyph glyph-name="afii10019" unicode="&#xc2;" 
d="M70 90q0 -16 3.5 -34t17.5 -33q20 -20 45 -21.5t44 -1.5h309q27 0 51 6.5t49 34.5q16 18 24.5 36t12.5 36.5t4.5 37.5t0.5 38q0 33 -3 65.5t-26 59.5q-10 12 -28 23.5t-44 14.5v4q19 2 34.5 11t29.5 26q20 26 25 56t5 62q0 17 -1.5 37t-6 40t-13 39t-23.5 34
q-15 16 -41 27.5t-64 11.5h-323q-16 0 -32 -4t-30 -20q-10 -12 -15 -30t-5 -38v-518zM124 612q0 6 2.5 16.5t7.5 15.5q6 7 14 7.5t16 0.5h303q14 0 32 -2.5t35 -18.5q4 -4 9.5 -11.5t10.5 -20.5t8.5 -33t3.5 -48q0 -11 -1 -26t-3 -31t-6.5 -30.5t-11.5 -23.5
q-17 -22 -43 -26.5t-49 -4.5h-328v236zM124 328h359q22 0 42 -11t30 -26q5 -8 8.5 -21t5.5 -27.5t3 -29t1 -25.5q0 -12 -1 -26.5t-3.5 -29.5t-6.5 -28.5t-11 -22.5q-9 -13 -21.5 -19.5t-25 -9.5t-25.5 -3.5t-23 -0.5h-279q-12 0 -25.5 1.5t-20.5 9.5q-3 4 -5 12.5t-2 30.5
v226z" />
    <glyph glyph-name="afii10020" unicode="&#xc3;" horiz-adv-x="551" 
d="M124 0v605q0 10 0.5 20t5.5 16q8 10 23.5 10.5t26.5 0.5h391v48h-423q-13 0 -28.5 -4t-29.5 -18t-17 -28.5t-3 -28.5v-621h54z" />
    <glyph glyph-name="afii10021" unicode="&#xc4;" horiz-adv-x="752" 
d="M30 48h-50v-48h792v48h-50l-274 590q-14 29 -30 49.5t-42 20.5t-42.5 -20.5t-29.5 -49.5zM355 626q2 5 8 14.5t13 9.5t13 -9.5t8 -14.5l265 -578h-572z" />
    <glyph glyph-name="afii10022" unicode="&#xc5;" horiz-adv-x="620" 
d="M580 0v48h-401q-9 0 -24 2t-21 7q-5 5 -7.5 12.5t-2.5 15.5v249h442v48h-442v225q0 5 1.5 16.5t9.5 18.5q5 5 16.5 7.5t19.5 2.5h405v48h-413q-20 0 -39 -4t-34 -22q-4 -5 -12 -20.5t-8 -46.5v-510q0 -20 3 -40t19 -36q17 -17 36 -19t37 -2h415z" />
    <glyph glyph-name="afii10024" unicode="&#xc6;" horiz-adv-x="958" 
d="M978 0l-331 298l-34 33t-14 26q0 8 9 20t31 33l302 290h-78l-271 -264l-14.5 -15t-15.5 -19.5t-12 -21.5t-5 -21q0 -3 1 -10t7 -17.5t17.5 -26t32.5 -34.5l294 -271h81zM452 0h54v700h-54v-700zM-20 0h81l294 271q8 7 18 17.5t19 22.5t15 24.5t6 23.5q0 10 -5 21
t-12 21.5t-15.5 19.5l-14.5 15l-271 264h-78l302 -290q22 -21 31 -33t9 -20q0 -12 -14 -26l-34 -33z" />
    <glyph glyph-name="afii10025" unicode="&#xc7;" horiz-adv-x="613" 
d="M40 0h340q31 0 62.5 6t54.5 20q38 22 52 61t14 98q0 1 -0.5 14.5t-2 31t-6 36.5t-11.5 33q-16 29 -41 40t-44 13v4q14 4 29 12t26 19q26 26 32 59.5t6 66.5q0 18 -1 38t-5.5 39.5t-12.5 37t-22 32.5q-14 14 -29 22t-30 11.5t-29.5 4.5t-26.5 1h-351v-48h361q18 0 34 -6.5
t26 -16.5q10 -11 15.5 -25t8.5 -29t3.5 -30.5t0.5 -28.5q0 -27 -2.5 -53.5t-19.5 -47.5q-11 -14 -25 -22t-28.5 -11.5t-29 -4t-26.5 -0.5h-308v-48h334q17 0 42.5 -4t45.5 -24q21 -22 25 -54.5t4 -62.5q0 -17 -1 -33.5t-5.5 -32.5t-13 -29.5t-24.5 -22.5q-17 -10 -44.5 -14
t-49.5 -4h-327v-48z" />
    <glyph glyph-name="afii10026" unicode="&#xc8;" horiz-adv-x="728" 
d="M658 0v621q0 7 -1 21.5t-6.5 29t-18 25.5t-34.5 11q-17 0 -29 -5.5t-21.5 -15t-18.5 -23.5l-19 -30l-355 -565q-4 -5 -8 -12.5t-11 -7.5q-11 0 -11.5 9.5t-0.5 20.5v621h-54v-627q0 -10 1.5 -24t7 -26.5t17.5 -21.5t33 -9q16 0 27.5 5t20.5 13.5t16 19.5l15 23l361 569
q5 9 11.5 19t13.5 10q8 0 9 -8t1 -12v-631h54z" />
    <glyph glyph-name="afii10027" unicode="&#xc9;" horiz-adv-x="728" 
d="M658 0v621q0 7 -1 21.5t-6.5 29t-18 25.5t-34.5 11q-17 0 -29 -5.5t-21.5 -15t-18.5 -23.5l-19 -30l-355 -565q-4 -5 -8 -12.5t-11 -7.5q-11 0 -11.5 9.5t-0.5 20.5v621h-54v-627q0 -10 1.5 -24t7 -26.5t17.5 -21.5t33 -9q16 0 27.5 5t20.5 13.5t16 19.5l15 23l361 569
q5 9 11.5 19t13.5 10q8 0 9 -8t1 -12v-631h54zM219 835q6 -32 21.5 -51.5t29.5 -30.5q22 -16 45.5 -20t48.5 -4t48.5 4t45.5 20q14 11 29.5 30.5t21.5 51.5h-58q-2 -15 -9 -25t-13 -15q-14 -13 -31 -15.5t-34 -2.5t-34 2.5t-31 15.5q-6 5 -13 15t-9 25h-58z" />
    <glyph glyph-name="afii10028" unicode="&#xca;" horiz-adv-x="626" 
d="M70 0h54v700h-54v-700zM656 0l-387 298q-17 13 -34.5 28.5t-17.5 32.5q0 8 5 15.5t12 14t14.5 12t12.5 9.5l358 290h-78l-328 -264q-17 -14 -33.5 -34.5t-16.5 -41.5t17 -44.5t44 -44.5l351 -271h81z" />
    <glyph glyph-name="afii10029" unicode="&#xcb;" horiz-adv-x="626" 
d="M-30 0h58l264 637l6.5 15t14.5 8t14.5 -8l6.5 -15l264 -637h58l-272 647q-8 20 -16 32t-16.5 18.5t-18 8.5t-20.5 2q-22 0 -38.5 -10.5t-32.5 -50.5z" />
    <glyph glyph-name="afii10030" unicode="&#xcc;" horiz-adv-x="932" 
d="M70 0h54v642q0 11 5 14.5t9 3.5q5 0 11 -7t8 -13l238 -572q14 -32 29 -54t42 -22t42 22t29 54l238 572q2 6 8 13t11 7q4 0 9 -3.5t5 -14.5v-642h54v642q0 29 -18 47.5t-48 18.5t-46 -18.5t-30 -50.5l-237 -570q-2 -6 -5.5 -14t-11.5 -8t-11.5 8t-5.5 14l-237 570
q-14 32 -30 50.5t-46 18.5t-48 -18.5t-18 -47.5v-642z" />
    <glyph glyph-name="afii10031" unicode="&#xcd;" horiz-adv-x="702" 
d="M632 700h-54v-320h-454v320h-54v-700h54v332h454v-332h54v700z" />
    <glyph glyph-name="afii10032" unicode="&#xce;" horiz-adv-x="778" 
d="M389 708q-29 0 -62.5 -2t-67.5 -9.5t-66.5 -22.5t-59.5 -42q-30 -30 -46.5 -66t-24.5 -74t-10 -75t-2 -67t2 -67t10 -75t24.5 -74t46.5 -66q27 -27 59.5 -42.5t66.5 -23t67.5 -9t62.5 -1.5t62.5 1.5t67.5 9t66.5 23t59.5 42.5q30 30 46.5 66t24.5 74t10 75t2 67t-2 67
t-10 75t-24.5 74t-46.5 66q-27 27 -59.5 42t-66.5 22.5t-67.5 9.5t-62.5 2zM108 350q0 30 1 63t7 64.5t18 61.5t34 54q22 25 50 38.5t57.5 20t59 7.5t54.5 1t54.5 -1t59 -7.5t57 -20t50.5 -38.5q22 -24 34 -54t18 -61.5t7 -64.5t1 -63t-1 -63t-7 -64.5t-18 -61.5t-34 -54
q-23 -25 -50.5 -38.5t-57 -20t-59 -7.5t-54.5 -1t-54.5 1t-59 7.5t-57.5 20t-50 38.5q-22 24 -34 54t-18 61.5t-7 64.5t-1 63z" />
    <glyph glyph-name="afii10033" unicode="&#xcf;" horiz-adv-x="694" 
d="M533 652q7 0 14.5 -0.5t14.5 -7.5t7.5 -14.5t0.5 -15.5v-614h54v609q0 17 -3 35.5t-18 34.5q-14 14 -29.5 17.5t-29.5 3.5h-394q-14 0 -29.5 -3.5t-29.5 -17.5q-15 -16 -18 -34.5t-3 -35.5v-609h54v614q0 8 0.5 15.5t7.5 14.5t14.5 7.5t14.5 0.5h372z" />
    <glyph glyph-name="afii10034" unicode="&#xd0;" 
d="M124 0v286h355q26 0 51 8t43 22q19 15 30.5 35t17.5 42.5t8 46.5t2 45q0 69 -11.5 110.5t-41.5 67.5t-64.5 31.5t-68.5 5.5h-289q-4 0 -12 -0.5t-18 -2.5t-20 -5.5t-17 -10.5q-14 -14 -16.5 -32t-2.5 -32v-617h54zM124 334v275q0 18 5 30.5t35 12.5h286q38 0 60.5 -10
t33.5 -22q10 -12 16 -28.5t9 -34t3.5 -33.5t0.5 -25q0 -10 -0.5 -27.5t-3 -37t-8 -38t-15.5 -30.5q-9 -11 -31.5 -21.5t-66.5 -10.5h-324z" />
    <glyph glyph-name="afii10035" unicode="&#xd1;" horiz-adv-x="639" 
d="M619 0v48h-271q-44 0 -76.5 9t-55.5 21.5t-38 27.5t-24 27q-16 22 -25 46.5t-13.5 51t-6 54t-1.5 54.5q0 29 1.5 60.5t6.5 61.5t15.5 58.5t28.5 51.5q22 28 49 44t54.5 24.5t53.5 10.5t46 2h245v48h-268q-47 0 -83 -10t-62 -23.5t-43.5 -28t-26.5 -23.5
q-26 -27 -40.5 -60t-22.5 -69t-10 -73t-2 -73q0 -89 16.5 -152.5t61.5 -108.5q12 -12 30 -25.5t43.5 -25.5t59 -20t76.5 -8h282z" />
    <glyph glyph-name="afii10036" unicode="&#xd2;" horiz-adv-x="600" 
d="M327 0v652h293v48h-640v-48h293v-652h54z" />
    <glyph glyph-name="afii10037" unicode="&#xd3;" horiz-adv-x="610" 
d="M282 0l358 700h-60l-267 -527l-283 527h-60l315 -581l-63 -119h60z" />
    <glyph glyph-name="afii10038" unicode="&#xd4;" horiz-adv-x="882" 
d="M414 700v-53h-93q-29 0 -58.5 -1.5t-57.5 -9t-53.5 -23t-47.5 -43.5q-35 -46 -44.5 -100t-9.5 -111q0 -27 1.5 -55t6.5 -55.5t14 -53.5t25 -48q20 -29 46 -45.5t53.5 -25t54 -11t48.5 -2.5h115v-63h54v63h115q22 0 48.5 2.5t54 11t53.5 25t46 45.5q16 22 25 48t14 53.5
t6.5 55.5t1.5 55q0 57 -9.5 111t-44.5 100q-22 28 -47.5 43.5t-53.5 23t-57.5 9t-58.5 1.5h-93v53h-54zM414 111h-90q-27 0 -56 2t-55 10.5t-48 26t-36 48.5q-11 25 -16 63t-5 102q0 42 4 83t22 75q15 28 35.5 44t42.5 23.5t44 9t39 1.5h119v-488zM468 111v488h119
q17 0 39 -1.5t44 -9t42.5 -23.5t35.5 -44q18 -34 22 -75t4 -83q0 -64 -5 -102t-16 -63q-14 -31 -36 -48.5t-48 -26t-55 -10.5t-56 -2h-90z" />
    <glyph glyph-name="afii10039" unicode="&#xd5;" horiz-adv-x="560" 
d="M580 0l-271 355l263 345h-64l-228 -306l-228 306h-64l263 -345l-271 -355h64l236 316l236 -316h64z" />
    <glyph glyph-name="afii10040" unicode="&#xd6;" horiz-adv-x="710" 
d="M720 0v48h-97v652h-54v-652h-408q-6 0 -16 1.5t-16 9.5q-5 7 -5 17v19v605h-54v-620q0 -13 3.5 -32t20.5 -33q12 -10 30.5 -12.5t38.5 -2.5h557z" />
    <glyph glyph-name="afii10041" unicode="&#xd7;" horiz-adv-x="654" 
d="M584 0v700h-54v-337h-313q-6 0 -16 0.5t-21.5 3.5t-23.5 8.5t-21 16.5q-16 18 -18.5 40t-2.5 40v228h-54v-226q0 -32 5.5 -58.5t22.5 -48.5q23 -29 55.5 -40.5t62.5 -11.5h324v-315h54z" />
    <glyph glyph-name="afii10042" unicode="&#xd8;" horiz-adv-x="974" 
d="M460 700v-652h-303q-7 0 -15 1.5t-13 9.5q-4 6 -4.5 13.5t-0.5 16.5v611h-54v-625q0 -10 2.5 -27t14.5 -29q13 -14 31.5 -16.5t26.5 -2.5h684q8 0 26.5 2.5t31.5 16.5q12 12 14.5 29t2.5 27v625h-54v-611q0 -9 -0.5 -16.5t-4.5 -13.5q-5 -8 -13 -9.5t-15 -1.5h-303v652
h-54z" />
    <glyph glyph-name="afii10043" unicode="&#xd9;" horiz-adv-x="991" 
d="M1001 48h-97v652h-54v-652h-336v652h-54v-652h-303q-7 0 -15 1.5t-13 9.5q-4 6 -4.5 13.5t-0.5 16.5v611h-54v-625q0 -10 2.5 -27t14.5 -29q13 -14 31.5 -16.5t26.5 -2.5h856v48z" />
    <glyph glyph-name="afii10044" unicode="&#xda;" horiz-adv-x="732" 
d="M-10 652h95q7 0 14.5 -3.5t12.5 -8.5q5 -6 7 -17.5t2 -19.5v-519q0 -16 2.5 -31.5t14.5 -29.5q13 -15 27.5 -19t26.5 -4h322q31 0 54.5 6.5t40 15.5t26.5 18.5t15 15.5q11 14 17.5 31.5t9.5 36.5t4 36.5t1 31.5q0 17 -1 36t-4 37.5t-8 35t-13 28.5q-13 19 -42.5 35.5
t-85.5 16.5h-353v227q0 15 -3 35.5t-16 34.5q-5 5 -19 13.5t-41 8.5h-106v-48zM175 333h360q10 0 28.5 -2.5t32.5 -14.5q10 -9 16 -24t8.5 -32.5t3 -35.5t0.5 -34q0 -30 -3 -60.5t-22 -50.5q-14 -15 -38 -23t-50 -8h-291q-11 0 -22 1.5t-17 10.5q-3 5 -4.5 14.5t-1.5 17.5
v241z" />
    <glyph glyph-name="afii10045" unicode="&#xdb;" horiz-adv-x="841" 
d="M70 700v-616q0 -16 2.5 -31.5t14.5 -29.5q13 -15 27.5 -19t26.5 -4h322q31 0 54.5 6.5t40 15.5t26.5 18.5t15 15.5q11 14 17.5 31.5t9.5 36.5t4 36.5t1 31.5q0 17 -1 36t-4 37.5t-8 35t-13 28.5q-13 19 -42.5 35.5t-85.5 16.5h-353v319h-54zM124 333h360q10 0 28.5 -2.5
t32.5 -14.5q10 -9 16 -24t8.5 -32.5t3 -35.5t0.5 -34q0 -30 -3 -60.5t-22 -50.5q-14 -15 -38 -23t-50 -8h-291q-11 0 -22 1.5t-17 10.5q-3 5 -4.5 14.5t-1.5 17.5v241zM771 0v700h-54v-700h54z" />
    <glyph glyph-name="afii10046" unicode="&#xdc;" 
d="M70 700v-616q0 -16 2.5 -31.5t14.5 -29.5q13 -15 27.5 -19t26.5 -4h322q57 0 89 18t47 38q11 14 17.5 31.5t9.5 36.5t4 36.5t1 31.5q0 17 -1 36t-4 37.5t-8 35t-13 28.5q-13 19 -42.5 35.5t-85.5 16.5h-353v319h-54zM124 333h360q10 0 28.5 -2.5t32.5 -14.5q10 -9 16 -24
t8.5 -32t3 -34.5t0.5 -31.5v-26t-2.5 -31t-7.5 -31.5t-15 -26.5q-14 -15 -38 -23t-50 -8h-291q-11 0 -22 1.5t-17 10.5q-3 5 -4.5 14.5t-1.5 17.5v241z" />
    <glyph glyph-name="afii10047" unicode="&#xdd;" horiz-adv-x="656" 
d="M50 0h264q66 0 115 17t84 46q28 24 46 53.5t28.5 65.5t14.5 79.5t4 94.5q0 36 -2 72.5t-10.5 71.5t-25 67.5t-44.5 59.5q-27 26 -56 40.5t-57 22t-53 9t-44 1.5h-254v-48h278q46 0 87.5 -19t70.5 -54q17 -21 27.5 -45.5t16.5 -50t7.5 -51.5t0.5 -51h-474v-48h474
q1 -31 -1 -63t-9.5 -62t-22 -58t-39.5 -50q-27 -24 -64.5 -38t-87.5 -14h-274v-48z" />
    <glyph glyph-name="afii10048" unicode="&#xde;" horiz-adv-x="936" 
d="M124 383v317h-54v-700h54v335h83q-2 -38 2.5 -76.5t15.5 -73.5t27.5 -65.5t37.5 -51.5q27 -27 59.5 -42.5t67 -23t68 -9t62.5 -1.5q30 0 63.5 1.5t67.5 9t66.5 23t59.5 42.5t43.5 61t25 71t11 75.5t2.5 74.5t-2.5 74.5t-11 75.5t-25 71t-43.5 61t-59.5 42t-66.5 22.5
t-67.5 9.5t-63.5 2q-29 0 -62.5 -2t-68 -9.5t-67 -22.5t-59.5 -42q-20 -21 -36 -49t-27 -61t-16 -68.5t-4 -70.5h-83zM265 350q0 30 1 63t7 64.5t18 61.5t34 54q22 25 50 38.5t57.5 20t59 7.5t54.5 1q34 0 65 -2t58.5 -8.5t52 -20t45.5 -36.5q22 -24 34.5 -53.5t18.5 -61.5
t7 -64.5t1 -63.5t-1 -63.5t-7 -64.5t-18.5 -61.5t-34.5 -53.5q-21 -23 -45.5 -36.5t-52 -20t-58.5 -8.5t-65 -2q-25 0 -54.5 1t-59 7.5t-57.5 20t-50 38.5q-22 24 -34 54t-18 61.5t-7 64.5t-1 63z" />
    <glyph glyph-name="afii10049" unicode="&#xdf;" horiz-adv-x="691" 
d="M621 0v593q0 20 -4 41.5t-25 41.5q-17 16 -37 20t-39 4h-295q-15 0 -33 -2t-36 -8.5t-34.5 -18.5t-29.5 -31q-20 -31 -25.5 -71t-5.5 -79q0 -32 4.5 -72t26.5 -74q6 -9 15.5 -19.5t24.5 -20t36 -15.5t49 -6h155v-5l-328 -278h79l309 264q8 6 13.5 12.5t5.5 17.5v16
q0 11 -6.5 17t-17.5 6h-217q-26 0 -45 12.5t-27 26.5t-13.5 41.5t-5.5 82.5q0 11 0.5 28.5t3.5 36t9.5 36.5t19.5 30q18 18 40.5 21.5t42.5 3.5h286q8 0 17.5 -1.5t18.5 -9.5t11.5 -17.5t2.5 -18.5v-605h54z" />
    <glyph glyph-name="afii10065" unicode="&#xe0;" horiz-adv-x="505" 
d="M70 530v-47h257q19 0 33.5 -7t22.5 -17q10 -12 15 -31t5 -32v-79h-230q-23 0 -50 -5t-49 -23q-29 -24 -36.5 -58.5t-7.5 -66.5q0 -12 1 -30.5t6 -38t14 -39t26 -32.5q22 -17 47.5 -20.5t48.5 -3.5h204q14 0 31 2t29 13q13 12 15.5 28t2.5 27v317q0 24 -5.5 53.5
t-26.5 52.5q-16 17 -41 27t-52 10h-260zM403 270v-199q0 -5 -1 -9t-6 -9t-11.5 -5.5t-11.5 -0.5h-214q-17 0 -30.5 6.5t-21.5 16.5q-14 17 -17.5 42.5t-3.5 49.5q0 28 3.5 48.5t13.5 33.5q6 8 20.5 17t37.5 9h242z" />
    <glyph glyph-name="afii10066" unicode="&#xe1;" horiz-adv-x="531" 
d="M467 653v47h-233q-45 0 -88.5 -19.5t-68.5 -61.5q-19 -32 -23 -65.5t-4 -59.5v-278q0 -32 4 -65.5t24 -67.5q18 -32 43 -49.5t51.5 -26.5t53 -11t47.5 -2q22 0 48 2.5t52 11t49.5 25t41.5 45.5q23 38 30 89.5t7 102.5q0 43 -5.5 90.5t-29.5 85.5q-16 25 -37.5 41.5
t-45.5 26t-48.5 13t-46.5 3.5h-186q1 24 10 47.5t26 40.5t43.5 26t55.5 9h230zM102 483h189q44 0 71 -11.5t42 -27.5t23.5 -36t12.5 -41.5t4.5 -44.5t0.5 -45q0 -23 -1 -49.5t-5 -52.5t-12 -49t-21 -39q-14 -16 -31.5 -25.5t-36 -14t-36.5 -5.5t-31 -1q-18 0 -38 2t-39 8.5
t-36 18t-29 29.5q-14 20 -20.5 48.5t-6.5 57.5v278z" />
    <glyph glyph-name="afii10067" unicode="&#xe2;" horiz-adv-x="498" 
d="M50 63q0 -12 2 -24t11 -22q15 -17 44 -17h246q18 0 39 6t41 27q25 27 30 61t5 67q0 20 -2 41t-16 39q-8 11 -21.5 20.5t-33.5 13.5v2q21 3 33.5 12.5t19.5 18.5q14 18 17 39t3 41q0 24 -5 53t-22 50q-11 13 -24.5 21t-27 12t-26 5t-20.5 1h-231q-12 0 -24.5 -5t-20.5 -13
t-12.5 -19.5t-4.5 -25.5v-404zM102 300v164q0 3 1.5 7.5t3.5 6.5t7.5 3.5t8.5 1.5h211q11 0 26.5 -2.5t29.5 -15.5q17 -15 19.5 -35.5t2.5 -35.5q0 -18 -3 -37t-17 -35q-13 -15 -27 -18.5t-31 -3.5h-232zM102 253h232q16 0 31 -4.5t28 -19.5q14 -17 16.5 -38.5t2.5 -38.5
q0 -20 -2.5 -42.5t-16.5 -39.5t-31 -20t-39 -3h-189q-8 0 -14.5 1t-11.5 7q-4 5 -5 11.5t-1 13.5v173z" />
    <glyph glyph-name="afii10068" unicode="&#xe3;" horiz-adv-x="438" 
d="M102 0v445q0 5 0.5 14.5t5.5 15.5q6 8 22 8h318v47h-338q-14 0 -28.5 -4.5t-23.5 -20.5q-7 -11 -7.5 -25t-0.5 -26v-454h52z" />
    <glyph glyph-name="afii10069" unicode="&#xe4;" horiz-adv-x="522" 
d="M33 47h-43v-47h542v47h-43l-171 443q-5 14 -18 30t-39 16t-39 -16t-18 -30zM249 468q2 4 5 9.5t7 5.5t7 -5.5t5 -9.5l161 -421h-346z" />
    <glyph glyph-name="afii10070" unicode="&#xe5;" horiz-adv-x="517" 
d="M473 0v47h-260q-26 0 -46 8.5t-34.5 21.5t-24 29.5t-13.5 32.5q-6 21 -8 53t-1 55h323q11 0 27.5 2.5t28.5 13.5q8 7 12.5 16.5t6.5 19t2.5 18.5t0.5 15q0 42 -10.5 71.5t-24.5 49.5t-28 31t-22 16q-32 19 -69.5 24.5t-65.5 5.5q-40 0 -85 -8.5t-81 -38.5
q-25 -21 -39.5 -47.5t-21.5 -55.5t-8.5 -59t-1.5 -58q0 -59 6 -108.5t37 -89.5q15 -20 33 -33t36.5 -20t36.5 -9.5t34 -2.5h260zM86 294q1 39 5 69t20 56q14 23 31 36t36.5 19t39.5 7.5t40 1.5q18 0 36 -1t36 -5.5t34.5 -13.5t30.5 -26q14 -16 25 -42.5t11 -65.5v-9
q0 -5 -2 -11t-6.5 -10.5t-13.5 -4.5h-323z" />
    <glyph glyph-name="afii10072" unicode="&#xe6;" horiz-adv-x="716" 
d="M384 0v530h-52v-530h52zM726 0l-241 242q-5 5 -12 14t-7 18t7 17t12 13l226 226h-71l-188 -187q-14 -14 -28 -33t-14 -40q0 -18 11 -32.5t24 -28.5l207 -209h74zM-10 0h74l207 209q13 14 24 28.5t11 32.5q0 21 -14 40t-28 33l-188 187h-71l226 -226q5 -5 12 -13t7 -17
t-7 -18t-12 -14z" />
    <glyph glyph-name="afii10073" unicode="&#xe7;" horiz-adv-x="482" 
d="M40 0h273q7 0 17.5 1t23 4t25 9t24.5 17q14 13 22 29.5t11.5 33t4.5 32t1 26.5q0 21 -4.5 45.5t-19.5 44.5q-11 14 -22.5 21t-21.5 9v3q17 5 28 14t17 17q14 20 17 45.5t3 43.5q0 24 -5.5 52t-27.5 50q-7 7 -29.5 20t-64.5 13h-262v-47h257q23 0 36 -6.5t20 -14.5
q14 -15 17 -35t3 -36q0 -5 -0.5 -14t-2.5 -19t-6 -20.5t-11 -17.5q-8 -9 -22.5 -15.5t-34.5 -6.5h-251v-47h244q14 0 30 -3t31 -17q19 -17 22.5 -38.5t3.5 -41.5q0 -5 -0.5 -15.5t-2 -22t-5 -23.5t-9.5 -20q-11 -15 -26 -19t-26 -4h-277v-47z" />
    <glyph glyph-name="afii10074" unicode="&#xe8;" horiz-adv-x="543" 
d="M493 0v475q0 6 -1 16t-5.5 20t-13.5 17.5t-26 7.5q-35 0 -55 -32l-273 -435q-7 -13 -11 -13q-5 0 -5.5 4.5t-0.5 8.5v461h-52v-481q0 -26 12.5 -40.5t35.5 -14.5q20 0 32 9t25 29l270 429q5 8 7.5 10t3.5 2q5 0 5 -4v-8v-461h52z" />
    <glyph glyph-name="afii10075" unicode="&#xe9;" horiz-adv-x="543" 
d="M493 0v475q0 6 -1 16t-5.5 20t-13.5 17.5t-26 7.5q-35 0 -55 -32l-273 -435q-7 -13 -11 -13q-5 0 -5.5 4.5t-0.5 8.5v461h-52v-481q0 -26 12.5 -40.5t35.5 -14.5q20 0 32 9t25 29l270 429q5 8 7.5 10t3.5 2q5 0 5 -4v-8v-461h52zM275 607q-23 0 -39 5.5t-26 14.5
q-8 7 -15 19t-11 24h-60q6 -20 18.5 -42t30.5 -37q22 -19 48.5 -25.5t53.5 -6.5t53.5 6.5t48.5 25.5q18 15 30.5 37t18.5 42h-60q-4 -12 -11 -24t-15 -19q-10 -9 -26 -14.5t-39 -5.5z" />
    <glyph glyph-name="afii10076" unicode="&#xea;" horiz-adv-x="448" 
d="M102 0v530h-52v-530h52zM458 0l-259 244q-5 5 -10.5 13.5t-5.5 15.5q0 10 8.5 19.5t13.5 14.5l236 223h-71l-202 -188q-13 -12 -27 -31t-14 -38q0 -12 7 -28t27 -35l223 -210h74z" />
    <glyph glyph-name="afii10077" unicode="&#xeb;" horiz-adv-x="482" 
d="M-10 0h59l182 464l4 10.5t6 5.5t6 -5.5l4 -10.5l182 -464h59l-199 494q-12 29 -28 35.5t-24 6.5t-24 -6.5t-28 -35.5z" />
    <glyph glyph-name="afii10078" unicode="&#xec;" horiz-adv-x="678" 
d="M565 463q1 2 3 5.5t4 3.5q3 0 3.5 -2.5t0.5 -4.5v-465h52v481q0 55 -50 55q-21 0 -32 -9t-19 -27l-177 -426q-8 -18 -11 -18t-11 18l-177 426q-8 18 -19 27t-32 9q-50 0 -50 -55v-481h52v465q0 2 0.5 4.5t3.5 2.5q2 0 4 -3.5t3 -5.5l178 -431q8 -20 22.5 -29t25.5 -9
t25.5 9t22.5 29z" />
    <glyph glyph-name="afii10079" unicode="&#xed;" horiz-adv-x="522" 
d="M472 0v530h-52v-233h-318v233h-52v-530h52v250h318v-250h52z" />
    <glyph glyph-name="afii10080" unicode="&#xee;" horiz-adv-x="584" 
d="M30 268q0 -86 20 -137.5t46 -76.5q22 -21 48.5 -33t53.5 -18t51.5 -7.5t42.5 -1.5t42.5 1.5t51.5 7.5t53.5 18t48.5 33q25 25 45.5 76.5t20.5 137.5q0 22 -2 49.5t-9 56t-20 56t-35 48.5q-20 19 -43.5 30.5t-49 17.5t-52 8t-51.5 2t-51.5 -2t-52 -8t-49.5 -17.5
t-43 -30.5q-22 -21 -35 -48.5t-20 -56t-9 -56t-2 -49.5zM86 263q0 17 0.5 40.5t4.5 48t12.5 47.5t24.5 41q15 17 35.5 26.5t43 14.5t44.5 6.5t41 1.5t41 -1.5t44.5 -6.5t43 -14.5t35.5 -26.5q16 -18 24.5 -41t12.5 -47.5t4.5 -48t0.5 -40.5q0 -16 -0.5 -38t-4.5 -45.5
t-13 -46.5t-25 -41q-16 -17 -35.5 -27.5t-41.5 -15.5t-44 -6.5t-42 -1.5t-42 1.5t-44 6.5t-41.5 15.5t-35.5 27.5q-17 18 -25.5 41t-12.5 46.5t-4.5 45.5t-0.5 38z" />
    <glyph glyph-name="afii10081" unicode="&#xef;" horiz-adv-x="520" 
d="M115 530q-25 0 -37 -8t-17 -15q-8 -11 -9.5 -26t-1.5 -28v-453h52v453q0 7 1 14.5t4 10.5q2 2 8 3.5t9 1.5h272q3 0 9 -1.5t8 -3.5q3 -3 4 -10.5t1 -14.5v-453h52v453q0 13 -1.5 28t-9.5 26q-5 7 -17 15t-37 8h-290z" />
    <glyph glyph-name="afii10082" unicode="&#xf0;" horiz-adv-x="512" 
d="M102 0h150q64 0 110 16t78 63q29 44 35.5 93.5t6.5 100.5q0 24 -1 49.5t-6.5 51t-17 50t-31.5 45.5t-42 33t-43.5 18.5t-40.5 8t-32 1.5h-134q-11 0 -27.5 -2.5t-31.5 -13.5q-6 -5 -15.5 -17t-9.5 -33v-634h52v170zM102 47v410q0 5 1.5 9.5t6.5 9.5q3 2 7.5 4.5t8.5 2.5
h153q36 0 72.5 -17.5t55.5 -59.5q9 -20 14 -52.5t5 -87.5q0 -52 -6 -91.5t-24 -67.5q-20 -31 -53.5 -45.5t-69.5 -14.5h-171z" />
    <glyph glyph-name="afii10083" unicode="&#xf1;" horiz-adv-x="476" 
d="M446 0v47h-186q-18 0 -40.5 2.5t-44 10.5t-40.5 24t-31 42q-5 11 -8.5 27t-5.5 33.5t-3 34.5t-1 30q0 10 0.5 26.5t2 34.5l3 35t4.5 28q12 48 50.5 78t102.5 30h185v47h-179q-63 0 -102.5 -18t-62.5 -41q-21 -21 -33 -47t-18 -54t-7.5 -56.5t-1.5 -55.5q0 -59 8 -106
t40 -85q23 -28 61 -47.5t95 -19.5h212z" />
    <glyph glyph-name="afii10084" unicode="&#xf2;" horiz-adv-x="432" 
d="M242 0v483h200v47h-452v-47h200v-483h52z" />
    <glyph glyph-name="afii10085" unicode="&#xf3;" horiz-adv-x="497" 
d="M507 530h-56l-209 -465l-196 465h-56l224 -527l-80 -174h56z" />
    <glyph glyph-name="afii10086" unicode="&#xf4;" horiz-adv-x="716" 
d="M332 700v-170h-93q-15 0 -37 -2t-46 -10.5t-47.5 -25.5t-41.5 -47q-11 -18 -24 -61t-13 -125q0 -22 1.5 -45.5t6 -47.5t13.5 -47.5t23 -44.5q18 -26 40 -41t44.5 -22.5t44.5 -9t40 -1.5h89v-170h52v170h89q18 0 40 1.5t44.5 9t44.5 22.5t40 41q28 42 36 91.5t8 93.5
q0 82 -13 125t-24 61q-18 30 -41.5 47t-47.5 25.5t-46 10.5t-37 2h-93v170h-52zM332 47h-91q-14 0 -30 1.5t-32.5 8t-33 19t-29.5 33.5q-20 32 -25 69t-5 75q0 44 6 91.5t31 82.5q19 27 49 41.5t67 14.5h93v-436zM384 47v436h93q37 0 67 -14.5t49 -41.5q25 -35 31 -82.5
t6 -91.5q0 -38 -5 -75t-25 -69q-14 -21 -30 -33.5t-32.5 -19t-33 -8t-29.5 -1.5h-91z" />
    <glyph glyph-name="afii10087" unicode="&#xf5;" horiz-adv-x="430" 
d="M440 0l-196 272l187 258h-61l-155 -219l-155 219h-61l188 -258l-197 -272h63l162 233l162 -233h63z" />
    <glyph glyph-name="afii10088" unicode="&#xf6;" horiz-adv-x="528" 
d="M538 0v47h-69v483h-52v-483h-278q-7 0 -16 1t-14 6t-6 14.5t-1 14.5v447h-52v-462q0 -8 2.5 -25.5t16.5 -28.5q12 -10 29 -12t28 -2h412z" />
    <glyph glyph-name="afii10089" unicode="&#xf7;" horiz-adv-x="510" 
d="M460 0v530h-52v-234h-241q-24 0 -39.5 7t-22.5 16q-10 12 -11.5 29t-1.5 31v151h-52v-139q0 -29 3 -57.5t20 -48.5q22 -26 54 -31t58 -5h233v-249h52z" />
    <glyph glyph-name="afii10090" unicode="&#xf8;" horiz-adv-x="780" 
d="M364 530v-483h-234q-16 0 -23 10q-4 5 -4.5 12t-0.5 14v447h-52v-461q0 -13 2.5 -27.5t13.5 -25.5q14 -13 33 -14.5t35 -1.5h512q16 0 35 1.5t33 14.5q11 11 13.5 25.5t2.5 27.5v461h-52v-447q0 -7 -0.5 -14t-4.5 -12q-7 -10 -23 -10h-234v483h-52z" />
    <glyph glyph-name="afii10091" unicode="&#xf9;" horiz-adv-x="789" 
d="M364 530v-483h-234q-16 0 -23 10q-4 5 -4.5 12t-0.5 14v447h-52v-461q0 -13 2.5 -27.5t13.5 -25.5q14 -13 33 -14.5t35 -1.5h665v47h-69v483h-52v-483h-262v483h-52z" />
    <glyph glyph-name="afii10092" unicode="&#xfa;" horiz-adv-x="537" 
d="M-10 530v-47h66q6 0 12.5 -1.5t10.5 -6.5q2 -4 3 -10.5t1 -11.5v-392q0 -13 1.5 -26t11.5 -23q9 -9 21 -10.5t23 -1.5h230q27 0 52 3t46 23q13 13 21 30.5t12 36t5 35.5t1 29q0 26 -6 58.5t-31 56.5q-22 21 -47.5 26t-42.5 5h-245v169q0 8 -2 21.5t-12 23.5
q-7 7 -17.5 10t-19.5 3h-94zM135 256h245q10 0 25 -3.5t28 -19.5q13 -17 15.5 -39t2.5 -36q0 -39 -5 -58t-12 -28q-12 -17 -26.5 -21t-27.5 -4h-220q-5 0 -11.5 0.5t-10.5 6.5q-2 4 -2.5 12.5t-0.5 11.5v178z" />
    <glyph glyph-name="afii10093" unicode="&#xfb;" horiz-adv-x="636" 
d="M50 530v-469q0 -13 1.5 -26t11.5 -23q9 -9 21 -10.5t23 -1.5h230q27 0 52 3t46 23q13 13 21 30.5t12 36t5 35.5t1 29q0 26 -6 58.5t-31 56.5q-22 21 -47.5 26t-42.5 5h-245v227h-52zM102 256h245q10 0 25 -3.5t28 -19.5q13 -17 15.5 -39t2.5 -36q0 -39 -5 -58t-12 -28
q-12 -17 -26.5 -21t-27.5 -4h-220q-5 0 -11.5 0.5t-10.5 6.5q-2 3 -2.5 11.5t-0.5 12.5v178zM534 0h52v530h-52v-530z" />
    <glyph glyph-name="afii10094" unicode="&#xfc;" horiz-adv-x="504" 
d="M50 530v-469q0 -13 1.5 -26t11.5 -23q9 -9 21 -10.5t23 -1.5h230q27 0 52 3t46 23q13 13 21 30.5t12 36t5 35.5t1 29q0 26 -6 58.5t-31 56.5q-22 21 -47.5 26t-42.5 5h-245v227h-52zM102 256h245q10 0 25 -3.5t28 -19.5q13 -17 15.5 -39t2.5 -36q0 -39 -5 -58t-12 -28
q-12 -17 -26.5 -21t-27.5 -4h-220q-5 0 -11.5 0.5t-10.5 6.5q-2 3 -2.5 11.5t-0.5 12.5v178z" />
    <glyph glyph-name="afii10095" unicode="&#xfd;" horiz-adv-x="494" 
d="M30 0h200q21 0 45 1.5t48 7.5t47 19.5t43 37.5q30 38 40.5 91t10.5 120q0 40 -3.5 70t-10.5 53t-17.5 40.5t-23.5 31.5q-33 35 -71 46.5t-78 11.5h-223v-47h222q13 0 29.5 -1.5t33.5 -7.5t32.5 -18.5t27.5 -33.5q14 -23 20.5 -57t5.5 -62h-364v-47h364q0 -14 -1.5 -32
t-3.5 -36t-5.5 -34.5t-7.5 -27.5q-9 -25 -24.5 -40.5t-34 -24t-37.5 -11.5t-36 -3h-228v-47z" />
    <glyph glyph-name="afii10096" unicode="&#xfe;" horiz-adv-x="726" 
d="M102 297v233h-52v-530h52v250h84q0 -17 1.5 -41.5t8 -51.5t19.5 -54t36 -49q22 -21 47.5 -33t50.5 -18t49 -7.5t43 -1.5q18 0 42 1.5t49.5 7.5t51.5 18t47 33q21 22 34 49t20 55.5t9 57t2 52.5q0 23 -2 50.5t-8.5 55.5t-19.5 55t-35 49q-22 21 -47.5 33t-51 17.5
t-49.5 6.5t-42 1q-19 0 -43 -1t-49.5 -6.5t-50.5 -17.5t-47 -33q-33 -32 -48 -78.5t-17 -102.5h-84zM242 263q0 16 1 39.5t4.5 48.5t11.5 48.5t23 40.5t34.5 26.5t41 14.5t43 6.5t40.5 1.5t40.5 -1.5t43 -6.5t41 -14.5t34.5 -26.5t23 -40.5t11.5 -48.5t4.5 -48.5t1 -39.5
q0 -15 -0.5 -37t-4.5 -46t-12.5 -47t-23.5 -41q-15 -17 -34 -27.5t-40 -15.5t-42.5 -6.5t-41.5 -1.5t-41.5 1.5t-42.5 6.5t-40 15.5t-34 27.5q-15 18 -23.5 41t-12.5 47t-4.5 46t-0.5 37z" />
    <glyph glyph-name="afii10097" unicode="&#xff;" horiz-adv-x="521" 
d="M30 0h70l201 191q8 8 11 17t3 17q0 20 -13.5 25t-26.5 5h-98q-18 0 -34.5 5.5t-28.5 27.5q-7 13 -10 33t-3 54q0 20 2 42t13 39t24 22t27 5h213q9 0 18 -0.5t15 -7.5q5 -6 5.5 -15t0.5 -15v-445h52v449q0 16 -2 34t-16 31q-12 11 -28.5 13.5t-32.5 2.5h-224
q-28 0 -51 -10t-37 -25q-23 -25 -29 -58.5t-6 -63.5q0 -27 4 -59.5t23 -59.5q22 -31 49 -38.5t53 -7.5h57q2 0 5 -0.5t3 -5.5q0 -3 -2.5 -5.5l-6.5 -6.5z" />
    </font>
</defs>
</svg>
