<?xml version="1.0" encoding="utf-8"?>
<!-- Generator: Adobe Illustrator 19.0.0, SVG Export Plug-In . SVG Version: 6.00 Build 0)  -->
<svg version="1.1" id="Layer_1" xmlns="http://www.w3.org/2000/svg" xmlns:xlink="http://www.w3.org/1999/xlink" x="0px" y="0px"
	 viewBox="0 0 1000 500" style="enable-background:new 0 0 1000 500;" xml:space="preserve">
<style type="text/css">
	.st0{fill:#28ABE2;}
	.st1{fill:#F78D2E;}
	.st2{fill:#FEDD0D;}
	.st3{fill:#73BF44;}
	.st4{fill:#804097;}
	.st5{fill:#FFFFFF;}
</style>
<g id="XMLID_31_">
	<g id="XMLID_86_">
		<g id="XMLID_102_">
			<polygon id="XMLID_29_" class="st0" points="104.9,143.1 143,182.5 241.4,165 256.2,112.8 			"/>
			<polygon id="XMLID_28_" class="st1" points="358.4,209.9 257.6,112.5 256.2,112.8 241.4,165 302.3,220.7 358.1,210.9 			"/>
			<polygon id="XMLID_27_" class="st2" points="302.3,220.7 303.2,221.5 292.6,258.6 332.8,299.9 358.1,210.9 			"/>
			<polygon id="XMLID_26_" class="st3" points="175,211.4 231.7,199 402,366.8 392,424.7 			"/>
		</g>
		<g id="XMLID_89_">
			<polygon id="XMLID_25_" class="st0" points="318.2,389.1 280,349.7 181.7,367.2 166.8,419.4 			"/>
			<polygon id="XMLID_24_" class="st1" points="64.7,322.3 165.5,419.7 166.8,419.4 181.7,367.2 120.7,311.5 65,321.3 			"/>
			<polygon id="XMLID_23_" class="st2" points="120.7,311.5 119.9,310.7 130.4,273.6 90.3,232.3 65,321.3 			"/>
			<polygon id="XMLID_22_" class="st3" points="248.1,320.8 191.3,333.2 21,165.4 31,107.5 			"/>
		</g>
		<polygon id="XMLID_21_" class="st4" points="161.3,431.9 50.5,325.4 77.7,229.7 81.3,230.7 54.7,324.2 162.5,427.8 319,396.2 
			319.8,399.8 		"/>
		<polygon id="XMLID_20_" class="st4" points="346.1,301.3 342.5,300.3 369,206.8 261.3,103.2 104.7,134.9 104,131.2 262.5,99.1 
			373.3,205.6 		"/>
	</g>
	<g id="XMLID_32_">
		<g id="XMLID_71_">
			<path id="XMLID_83_" class="st5" d="M440.2,171.2c8.2,0,14.7,6.5,14.8,14.7v87.3c-0.2,8.2-6.7,14.7-14.8,14.7h-23.2V171.2H440.2z
				 M443.2,189.2c0-4.3-3-6-6.3-6h-7.8v92.8h7.8c3.3,0,6.3-1.7,6.3-6.2V189.2z"/>
			<path id="XMLID_81_" class="st5" d="M563.7,275.9c-1.3,3-3.3,7.7-3.8,8.7c-0.8,1.5-2.7,3.2-6.5,3.2h-26.6V174.5
				c0.2-1.8,1.7-3.3,3.7-3.3h31.1l-4,8.7c-0.7,1.5-2.5,3.3-6.3,3.3h-9.7c-1.7,0-2.8,1.2-2.8,2.8v34.6h18c-1.3,3-3.3,7.8-3.8,8.8
				c-0.8,1.5-2.5,3.2-6.3,3.2h-5c-1.5,0-2.8,1.3-2.8,2.8v40.5H563.7z"/>
			<path id="XMLID_79_" class="st5" d="M648.9,287.8h-5.2h-0.8c-6,0-7-7.2-7.2-8.2l-16.7-108.4h9.2c0.8,0,2.8,0.7,3.5,4.5l11.2,73.1
				l11.8-77.6h12L648.9,287.8z"/>
			<path id="XMLID_77_" class="st5" d="M764.4,274.1c0,8-6.3,14.5-14.3,14.8h-7.3c-8.3,0-15-6.7-15-14.8v-89.3
				c0-8.2,6.7-14.8,15-14.8h7.3c8,0.2,14.3,6.8,14.3,14.8v17.8c0,3.8-1.7,5.7-3.2,6.3l-8.7,4v-26.2c0-3.5-2.8-6.3-6.5-6.3
				c-3.5,0-6.3,2.8-6.3,6.3v85.1c0,3.7,2.8,6.5,6.3,6.5c3.7,0,6.5-2.8,6.5-6.5v-15.7c0-3.8,1.7-5.7,3.2-6.5c1-0.5,5.7-2.5,8.7-3.8
				V274.1z"/>
			<path id="XMLID_74_" class="st5" d="M854.7,170c8,0.3,14.5,6.8,14.5,14.8v89.4c-0.2,8-6.5,14.3-14.5,14.7h-9.2
				c-8.2,0-14.8-6.7-15-14.7v-89.4c0-8.2,6.7-14.8,15-14.8H854.7z M850.7,278.4c3.5,0,6.3-2.8,6.3-6.5V187c0-3.7-2.8-6.5-6.3-6.5
				h-1.8c-3.5,0.2-6.3,3-6.3,6.5v84.9c0,3.5,2.8,6.3,6.3,6.5H850.7z"/>
			<path id="XMLID_72_" class="st5" d="M973.1,287.8h-5.5c-6.5,0-7.5-5.2-8-7.5l-12.8-57.6v65.1h-12V171.2h5.5
				c6.7,0,7.8,3.2,8.5,6.5l12.3,60.6v-67.1h12V287.8z"/>
		</g>
		<g id="XMLID_33_">
			<path id="XMLID_69_" class="st5" d="M543.9,323.9v-5.7c0-1.5-1.2-2.7-2.7-2.7c-1.5,0-2.7,1.2-2.7,2.7v4.7c0,2.9,2.2,6.6,2.2,6.6
				l6.1,11.4c2.5,4.5,2.3,7.8,2.3,7.8v6.3c0,3.4-2.8,6.3-6.3,6.3h-3.2c-3.4-0.1-6.1-2.9-6.1-6.3v-5.1c0-1.6,0.8-2.4,1.4-2.7
				c0.4-0.1,2.5-1.1,3.7-1.6v8.6c0,1.5,1.2,2.7,2.7,2.7c1.5,0,2.7-1.2,2.7-2.7v-5.6c0-2.9-2.2-6.7-2.2-6.7l-6.1-11.3
				c-2.5-4.5-2.3-7.8-2.3-7.8v-5.1c0-3.4,2.8-6.5,6.3-6.5h3.2c3.4,0.1,6.1,3.2,6.1,6.5v1.9c0,1.6-0.8,2.4-1.4,2.7
				C547.2,322.4,545.2,323.3,543.9,323.9z"/>
			<path id="XMLID_67_" class="st5" d="M593.3,355c0,3.4-2.7,5.9-6.1,6v0.1h-3.9c-3.4,0-6.3-2.6-6.3-6.1v-42.1
				c0.1-0.8,0.7-1.4,1.5-1.4h3.6v42.6c0,1.5,1.1,2.7,2.6,2.7h0.8c1.5,0,2.7-1.2,2.7-2.7v-42.6h5.1V355z"/>
			<path id="XMLID_65_" class="st5" d="M640.9,360.8h-5v-25.4l-3.8,16.9h-1.5c-3,0-3.5-3-3.8-4l-3-12.9v25.4h-5v-49.3h3.1
				c2,0,2.3,1.8,2.3,1.8l5.8,28.3l5.6-28.4c0.1-0.2,0.4-1.8,2.3-1.8h3.1V360.8z"/>
			<path id="XMLID_63_" class="st5" d="M686.3,360.8h-5v-25.4l-3.8,16.9h-1.5c-3,0-3.5-3-3.8-4l-3-12.9v25.4h-5v-49.3h3.1
				c2,0,2.3,1.8,2.3,1.8l5.8,28.3l5.6-28.4c0.1-0.2,0.4-1.8,2.3-1.8h3.1V360.8z"/>
			<path id="XMLID_61_" class="st5" d="M716.9,311.5c1.5,0,2,1.1,2,2v47.3h-3.6c-1.2,0-1.4-0.7-1.5-1.1v-48.2H716.9z"/>
			<path id="XMLID_59_" class="st5" d="M765.1,315.2c-0.3,0.6-1.1,1.3-2.7,1.3h-3.9c-0.7,0-1.2,0.6-1.3,1.2v43.1h-3.6
				c-1.2,0-1.4-0.7-1.4-1.1v-43.2h-7.1v-3.4c0-0.8,0.7-1.5,1.5-1.5h20.1L765.1,315.2z"/>
			<path id="XMLID_57_" class="st5" d="M838.2,318.1v5.8c-1.3-0.6-3.3-1.5-3.7-1.7c-0.6-0.4-1.3-1.1-1.3-2.7v-2.2
				c0-3.4,2.8-6.3,6.3-6.3h3c3.4,0,6.3,2.8,6.3,6.3v8.5c0,0,0.1,3.4-1.1,6l-7.1,16.2c0,0-2.2,4.7-2.2,7v0.8h12.2
				c-0.6,1.3-1.4,3.2-1.6,3.7c-0.4,0.6-1.1,1.4-2.7,1.4h-12.9v-4.3c0,0-0.1-3.7,2.1-8.7l6.1-14.2c0,0,2.2-4.8,2.2-7.2v-8.2
				c0-1.5-1.2-2.7-2.7-2.7C839.4,315.4,838.2,316.6,838.2,318.1z"/>
			<path id="XMLID_53_" class="st5" d="M886.9,311c3.4,0.1,6.1,2.9,6.1,6.3v37.8c0,3.4-2.7,6.1-6.1,6.2h-3.2c-3.4,0-6.3-2.8-6.3-6.2
				v-37.8c0-3.4,2.8-6.3,6.3-6.3H886.9z M887.9,354.1v-36c0-1.5-1.2-2.7-2.7-2.7c-1.5,0-2.7,1.3-2.7,2.7v36c0,1.5,1.2,2.7,2.7,2.7
				C886.7,356.8,887.9,355.6,887.9,354.1z"/>
			<path id="XMLID_36_" class="st5" d="M927.7,311.5c0,0,2.7-0.3,2.7,3.4v45.9h-3.5c-0.8,0-1.5-0.7-1.5-1.5v-41.6
				c0-0.6-0.1-1.1-0.9-1.2c-1-0.2-1.5-0.8-1.8-1.3c-0.2-0.4-0.6-2.4-1.1-3.7H927.7z"/>
			<path id="XMLID_34_" class="st5" d="M979,311.5c0,0-9,17.3-9,49.3h-3.5c-0.8,0-1.5-0.7-1.5-1.5c0.2-21.1,4.3-35.5,6.9-42.6H965
				c-1.7,0-2.4-0.8-2.7-1.4l-1.7-3.7H979z"/>
		</g>
	</g>
</g>
</svg>
