<?xml version="1.0" encoding="utf-8"?>
<!-- Generator: Adobe Illustrator 19.0.0, SVG Export Plug-In . SVG Version: 6.00 Build 0)  -->
<svg version="1.1" id="Layer_1" xmlns="http://www.w3.org/2000/svg" xmlns:xlink="http://www.w3.org/1999/xlink" x="0px" y="0px"
	 viewBox="0 0 409 409" style="enable-background:new 0 0 409 409;" xml:space="preserve">
<style type="text/css">
	.st0{display:none;}
	.st1{display:inline;fill:none;stroke:#000000;stroke-miterlimit:10;}
</style>
<g id="XMLID_5_" class="st0">
	<path id="XMLID_13_" class="st1" d="M93,87c0,0,764,0,812,0c0,182-2,828-812,828c0-104,0-144,0-144s632-2,632-548
		c-116,0-210,0-210,0s2,344-422,344c0-120,0-148,0-148s240,2,240-196c-62,0-240,0-240,0V87z"/>
	<path id="XMLID_14_" class="st1" d="M95,723c436,0,442,192,442,192s132,0,188,0c0-348-630-348-630-348V723z"/>
</g>
<path id="XMLID_17_" d="M63,15c0,0,280.9,0,298.5,0c0,66.9-0.7,304.4-298.5,304.4c0-38.2,0-52.9,0-52.9S295.3,265.7,295.3,65
	c-42.6,0-77.2,0-77.2,0S218.9,191.5,63,191.5c0-44.1,0-54.4,0-54.4s88.2,0.7,88.2-72.1C128.4,65,63,65,63,65V15z"/>
<path id="XMLID_16_" d="M63,319.7c125.7-0.3,124.3,73.3,124.3,73.3s45.3,0,65.8,0C253.1,257.4,63,267.8,63,267.8V319.7z"/>
</svg>
