<?xml version="1.0" encoding="utf-8"?>
<!-- Generator: Adobe Illustrator 16.0.0, SVG Export Plug-In . SVG Version: 6.00 Build 0)  -->
<!DOCTYPE svg PUBLIC "-//W3C//DTD SVG 1.1//EN" "http://www.w3.org/Graphics/SVG/1.1/DTD/svg11.dtd">
<svg version="1.1" xmlns="http://www.w3.org/2000/svg" xmlns:xlink="http://www.w3.org/1999/xlink" x="0px" y="0px" width="1000px"
	 height="1000px" viewBox="0 0 1000 1000" enable-background="new 0 0 1000 1000" xml:space="preserve">
<g id="Layer_1">
	<path display="none" d="M842.74,87.22H185.26v110.12h194.329c0,160.323-194.329,158.702-194.329,158.702v119.836
		c343.316,0,341.695-278.538,341.695-278.538h170.038c0,442.1-511.733,443.718-511.733,443.718v2.954v113.643v0.651
		c276.872-0.702,273.751,161.473,273.751,161.473h145.013c0-104.465-51.262-169.582-117.91-210.105
		C841.66,577.045,842.74,207.334,842.74,87.22z"/>
</g>
<g id="logo-stroke">
	<g>
		<path fill="#6FC279" d="M822.691,107.22c-0.424,62.904-4.504,170.896-43.749,279.75c-24.076,66.78-58.366,124.966-101.918,172.94
			c-24.969,27.504-53.47,52.165-84.712,73.298c-33.906,22.936-71.988,42.357-113.189,57.726l-38.627,14.409l35.227,21.419
			c33.409,20.313,59.417,45.365,77.301,74.459c17.481,28.44,27.639,61.519,30.295,98.558H476.848
			c-3.903-20.542-14.803-53.496-45.139-84.425c-47.392-48.318-123.524-74.126-226.449-76.815v-78.246
			c14.545-0.862,36.309-2.699,62.87-6.608c44.972-6.617,112.875-20.726,180.977-50.358
			C571.315,550.15,716.993,436.55,716.993,197.34v-20h-20H526.955h-20.117l0.117,20.117c0.006,0.983-0.285,99.168-74.401,173.716
			c-52.387,52.693-128.785,81.034-227.294,84.371v-80.547c53.287-4.772,194.329-31.243,194.329-177.657v-20h-20H205.26v-70.12
			H822.691 M842.74,87.22H185.26v110.12h194.329c0,157.143-186.696,158.703-194.104,158.703c-0.149,0-0.226,0-0.226,0v119.836
			c343.316,0,341.695-278.538,341.695-278.538h170.038c0,442.1-511.733,443.718-511.733,443.718v2.954v113.643v0.651
			c0.591-0.002,1.201-0.002,1.79-0.002c275.088,0,271.961,161.475,271.961,161.475h145.013c0-104.465-51.262-169.582-117.91-210.105
			C841.66,577.045,842.74,207.334,842.74,87.22L842.74,87.22z"/>
	</g>
</g>
</svg>
